<svg width="96" height="96" viewBox="0 0 96 96" fill="none" xmlns="http://www.w3.org/2000/svg">
<path d="M48 96C74.5097 96 96 74.5097 96 48C96 21.4903 74.5097 0 48 0C21.4903 0 0 21.4903 0 48C0 74.5097 21.4903 96 48 96Z" fill="#F44336"/>
<path fill-rule="evenodd" clip-rule="evenodd" d="M56.9986 33H62.9986V48C62.9986 55.4128 63.5671 57 65.9986 57C69.9116 57 71.9986 55.1495 71.9986 48C71.9986 32.132 64.0398 24 47.999 24C37.6069 24.0013 28.3962 30.6908 25.1802 40.5728C21.9642 50.4547 25.4735 61.2839 33.8743 67.4012C42.2752 73.5186 53.6587 73.5343 62.0764 67.44L65.5949 72.3C55.0729 79.9178 40.8435 79.8983 30.3424 72.2516C19.8414 64.6048 15.4547 51.0684 19.4747 38.716C23.4948 26.3635 35.0081 18.0016 47.9986 18C67.3827 18 77.9986 28.8468 77.9986 48C77.9986 58.6346 73.0753 63 65.9986 63C61.967 63 59.6598 61.7001 58.3931 58.8146C55.6971 61.4066 52.0339 63 47.9986 63C39.7144 63 32.9986 56.2843 32.9986 48C32.9986 39.7157 39.7144 33 47.9986 33C51.3755 33 54.4917 34.1158 56.9986 35.9989V33ZM56.9986 48C56.9986 52.9706 52.9692 57 47.9986 57C43.0281 57 38.9986 52.9706 38.9986 48C38.9986 43.0294 43.0281 39 47.9986 39C52.9692 39 56.9986 43.0294 56.9986 48Z" fill="white"/>
</svg>
