<svg width="96" height="96" viewBox="0 0 96 96" fill="none" xmlns="http://www.w3.org/2000/svg">
<g clip-path="url(#clip0_296_30266)">
<path fill-rule="evenodd" clip-rule="evenodd" d="M96 48.0962C96 21.5334 74.5097 0 48 0C21.4903 0 0 21.5334 0 48.0962C0 72.1025 17.5529 92 40.5 95.6082V61.9991H28.3125V48.0962H40.5V37.5C40.5 25.4459 47.6661 18.7876 58.6303 18.7876C63.8819 18.7876 69.375 19.727 69.375 19.727V31.5632H63.3223C57.3595 31.5632 55.5 35.2706 55.5 39.0741V48.0962H68.8125L66.6844 61.9991H55.5V95.6082C78.4471 92 96 72.1025 96 48.0962Z" fill="#1778F2"/>
<path d="M55.5 95.4175V61.999H66.6844L68.8125 48.0962H55.5V39.0742C55.5 35.2706 57.3595 31.5632 63.3223 31.5632H69.375V19.727C69.375 19.727 63.8819 18.7876 58.6303 18.7876C47.6661 18.7876 40.5 25.4459 40.5 37.5V48.0962H28.3125V61.999H40.5V95.4175C42.9437 95.8009 45.4486 96 48 96C50.5514 96 53.0563 95.8009 55.5 95.4175Z" fill="white"/>
<path d="M96 48.051C95.9756 21.5089 74.4946 0 48 0C74.5097 0 96 21.4903 96 48C96 48.017 96 48.034 96 48.051Z" fill="white"/>
<path d="M0 48C0 48.016 7.85258e-06 48.0321 2.35541e-05 48.0481C0.0259784 21.5074 21.5063 0 48 0C21.4903 0 0 21.4903 0 48Z" fill="white"/>
</g>
<defs>
<clipPath id="clip0_296_30266">
<rect width="96" height="96" fill="white"/>
</clipPath>
</defs>
</svg>
