<svg width="260" height="110" viewBox="0 0 260 110" fill="none" xmlns="http://www.w3.org/2000/svg">
<path d="M73.6568 61.1244C74.117 59.9906 74.5854 58.8363 73.409 58.3468C72.7432 58.0988 72.0522 58.6163 71.9049 59.2739C70.2944 60.423 68.4743 61.2231 66.6545 62.0231C64.7159 62.8754 62.7775 63.7275 61.0931 65.0012C58.9503 66.6492 62.5368 69.2753 62.638 66.4469C64.1488 65.4728 65.7941 64.7524 67.44 64.0317C68.682 63.4879 69.9243 62.944 71.1094 62.2908C70.5049 64.9313 70.0063 67.5954 69.5077 70.2597C69.2718 71.5204 69.0358 72.7812 68.7887 74.0395C66.73 75.1758 64.7171 76.3942 62.7214 77.6344C61.683 78.2771 62.457 79.9811 63.622 79.561C63.842 79.456 64.1112 79.39 64.3849 79.323C65.0519 79.1596 65.7458 78.9896 65.8218 78.2312C66.6129 77.7461 67.4129 77.2768 68.219 76.8184C68.0934 77.4015 67.9636 77.9837 67.8285 78.5647C67.3688 80.5478 66.702 82.8017 66.0124 84.7817C65.8114 85.3566 66.1775 86.011 66.7397 86.1963C68.3629 87.135 69.6297 80.7212 70.3598 77.0248C70.4808 76.4123 70.5871 75.8743 70.6778 75.4568C71.5756 74.9704 72.4772 74.4908 73.3789 74.0112C74.0767 73.64 74.7745 73.2689 75.4705 72.8945C75.9622 72.6322 76.1523 71.9951 75.8864 71.493L75.886 71.4912C75.2306 70.389 73.6346 71.3622 72.2845 72.1854C71.9071 72.4155 71.5488 72.634 71.2357 72.7921C71.4088 71.88 71.5767 70.967 71.7447 70.054C72.1905 67.6301 72.6362 65.2064 73.1782 62.8029C73.173 62.3165 73.4137 61.7233 73.6568 61.1244Z" fill="black"/>
<path fill-rule="evenodd" clip-rule="evenodd" d="M89.4867 69.0487C89.8505 67.5825 89.471 65.6982 87.8322 65.241C79.9382 63.7312 76.815 90.8592 86.3842 77.5452C86.1952 80.6541 85.0608 82.1548 83.5554 84.1464C83.1624 84.6663 82.7441 85.2196 82.3108 85.8437C81.9382 86.501 81.5014 87.1893 81.0492 87.902C78.984 91.1568 76.5968 94.9191 78.5288 98.5381C80.3011 101.797 83.4599 100.471 84.8638 97.7446C85.8946 95.8002 86.1502 93.5839 86.4034 91.3889C86.4963 90.5836 86.5889 89.7808 86.7194 88.9957C87.4228 82.3056 87.5207 82.1953 91.0894 78.1766C91.4599 77.7593 91.8679 77.2998 92.3179 76.7865C93.3942 75.5337 94.4693 74.2796 95.5422 73.0236C95.4788 73.6381 95.4045 74.2512 95.3145 74.8624C93.8397 76.3853 96.8334 77.8145 97.2507 75.7526C97.5554 74.1298 97.7094 72.4847 97.8204 70.8332C98.8474 71.0501 100.47 70.6353 102.711 68.7267C102.758 69.1339 102.674 69.7802 102.582 70.4961C102.351 72.2837 102.063 74.5049 103.607 74.5193C104.128 74.4816 104.557 74.0423 104.578 73.5126C104.641 72.3707 104.732 71.2308 104.823 70.0909C104.928 68.7661 105.034 67.4412 105.096 66.1128C106.612 64.2107 107.56 61.2109 104.417 60.4483L104.416 60.4465C103.049 60.7658 103.045 62.3752 103.042 63.8445C103.04 64.4891 103.039 65.1067 102.922 65.5766C101.687 66.9391 100.21 68.3747 98.3417 68.7127C98.2059 68.6489 98.0774 68.5989 97.9562 68.5613C98.0379 67.1286 98.1244 65.6967 98.2859 64.2758C98.2771 64.0262 98.354 63.7782 98.43 63.533C98.5605 63.1122 98.6885 62.6993 98.3775 62.2995C96.3936 60.622 96.1838 64.236 96.1203 65.5197C96.0062 66.7043 95.9282 67.8929 95.8503 69.0813L95.8297 69.3948C95.7765 69.4369 95.7266 69.4843 95.6806 69.537C95.0094 70.31 94.3368 71.0821 93.664 71.8543C91.925 73.8503 90.1851 75.8473 88.4692 77.8634C88.8343 75.8204 89.1941 73.7793 89.5189 71.7288C89.5548 71.5182 89.6208 71.2939 89.6882 71.0648C89.8987 70.3497 90.123 69.5875 89.4867 69.0487ZM84.5561 89.3235C84.3342 91.1076 84.1123 92.8917 83.7759 94.655C83.587 95.7999 82.1072 99.418 80.7228 97.8983C79.9839 97.0643 79.8053 95.928 80.1042 94.8795C81.0426 91.6184 83.0049 88.7818 84.9081 86.0305L85.0165 85.8739C84.8425 87.02 84.6992 88.1719 84.5561 89.3235ZM82.662 78.6825C82.1001 74.6325 83.6532 69.8552 86.825 67.3016C88.0172 67.2662 87.5559 68.6309 87.0731 70.0592C86.6776 71.2289 86.2678 72.4412 86.7402 72.9618C85.6807 75.0573 84.3406 77.048 82.662 78.6825Z" fill="black"/>
<path fill-rule="evenodd" clip-rule="evenodd" d="M114.603 57.42C122.392 57.4528 112.715 65.0279 110.394 66.4882C110.302 70.8158 113.922 67.7634 115.88 66.1118C116.127 65.9039 116.347 65.7182 116.53 65.5722C117.489 64.6578 118.91 66.2023 117.934 67.101C117.194 67.7763 116.432 68.4296 115.65 69.0559C113.298 71.5581 108.898 71.8571 108.276 67.7008C106.577 67.5335 107.072 65.6435 108.346 65.2099C108.779 61.6253 110.676 57.8207 114.603 57.4242L114.603 57.42ZM113.617 59.9495C112.14 60.4923 111.416 61.9586 110.982 63.3899C112.453 62.2247 113.852 60.9534 115.081 59.5269C114.572 59.5787 114.087 59.7535 113.617 59.9495Z" fill="black"/>
<path d="M122.592 59.5631C122.79 58.7032 123.086 57.3274 121.913 57.0765L121.912 57.0748C121.074 56.9288 120.159 57.9356 120.588 58.7734C120.53 59.0747 120.471 59.3768 120.412 59.6797L120.412 59.6805C119.967 61.9487 119.515 64.2581 119.66 66.5712C121.03 69.6115 123.647 66.0267 125.039 64.1208C125.237 63.8491 125.411 63.6114 125.552 63.432C125.509 69.2922 130.289 64.3349 133.176 61.3411C133.893 60.5973 134.494 59.9746 134.874 59.6692C135.273 59.2852 135.304 58.6335 134.92 58.2159C134.161 57.079 131.803 59.5133 129.907 61.4716C128.976 62.4332 128.155 63.28 127.69 63.5329C127.77 62.4324 127.947 61.3453 128.123 60.2587L128.123 60.2577C128.18 59.912 128.236 59.5663 128.289 59.2202C129.246 58.0522 129.251 55.2728 127.145 55.9387C126.563 56.3018 126.483 56.9972 126.404 57.6713C126.371 57.9565 126.338 58.2378 126.268 58.4885C125.102 60.7406 123.456 62.8295 121.81 64.7686C121.95 63.0171 122.253 61.2824 122.592 59.5631Z" fill="black"/>
<path d="M121.607 50.0003C122.529 50.2251 122.493 50.8166 122.459 51.3799C122.425 51.9428 122.392 52.4776 123.319 52.5903C123.551 52.6694 123.838 52.7154 124.135 52.763C125.018 52.9044 125.988 53.0598 125.86 54.139C125.539 55.2753 124.327 54.9922 123.287 54.7496C122.953 54.6715 122.637 54.5976 122.374 54.5766C120.019 54.4759 119.121 49.999 121.607 50.0003Z" fill="black"/>
<path fill-rule="evenodd" clip-rule="evenodd" d="M149.502 34.8746C150.709 34.8237 151.145 36.3789 150.439 37.2095C150.366 37.8628 150.325 38.523 150.284 39.1807L150.284 39.1818C150.271 39.4037 150.257 39.6258 150.242 39.8468C150.108 41.2894 147.892 40.9253 148.148 39.504C147.123 40.4772 145.992 41.3476 144.861 42.218C143.147 43.5375 141.432 44.857 140.084 46.5345C141.053 47.0635 142.45 47.2234 143.866 47.3856C146.703 47.7103 149.615 48.0437 149.305 51.3703C149.685 53.9784 143.463 65.714 140.829 61.0253C140.827 59.2612 141.278 57.5221 141.726 55.7954C141.926 55.0257 142.125 54.2585 142.283 53.4927C142.424 53.043 142.526 52.5712 142.628 52.0981C142.822 51.1986 143.017 50.2942 143.486 49.5275C133.096 48.4664 139.115 43.7816 144.196 39.8271C145.839 38.548 147.384 37.3452 148.244 36.3663C148.274 35.6504 148.734 34.8875 149.5 34.8751L149.502 34.8746ZM145.616 49.9259C145.519 49.9034 145.421 49.8822 145.324 49.8611L145.22 49.8385C145.441 50.4167 145.578 51.1955 144.981 51.5792C144.714 52.6469 144.46 53.7184 144.205 54.7894L144.204 54.7912C144.14 55.0623 144.075 55.3341 144.011 55.6051C143.723 56.8094 143.438 58.0149 143.199 59.23C144.623 57.8446 149.785 49.9987 145.618 49.9254L145.616 49.9259Z" fill="black"/>
<path fill-rule="evenodd" clip-rule="evenodd" d="M158.719 44.5483C162.204 46.3836 158.336 49.5895 155.664 51.8044C154.91 52.4295 154.251 52.9757 153.88 53.3898C153.913 53.6483 153.936 53.9082 153.959 54.1581C154.091 55.6275 154.193 56.7511 156.005 55.2268C156.394 55.0442 156.856 54.6218 157.347 54.1731C158.399 53.2111 159.584 52.1278 160.472 53.0251C160.837 53.4643 160.792 54.1553 160.354 54.518C157.807 56.7434 152.688 61.1449 151.938 54.9414C150.114 54.9769 150.686 53.016 151.826 52.3831C152.343 48.9077 154.147 42.9278 158.721 44.5496L158.719 44.5483ZM156.782 46.4647C155.577 47.0035 155.109 48.3358 154.688 49.5342C154.636 49.6847 154.583 49.8331 154.531 49.9776C154.807 49.7191 155.092 49.4656 155.377 49.2114C156.313 48.3768 157.256 47.5358 157.955 46.493C157.583 46.3315 157.158 46.324 156.782 46.4647Z" fill="black"/>
<path d="M167.235 43.2078C168.691 44.3731 169.607 41.7694 168.295 41.0218L168.295 41.0236C164.979 39.9722 162.405 46.5617 161.972 49.1534C161.4 56.0187 165.011 55.6004 169.225 51.9057C169.436 51.7251 169.777 51.5112 170.154 51.2742C171.508 50.4246 173.336 49.2777 171.36 48.3049C169.958 48.5809 168.796 49.4918 167.629 50.4059C166.602 51.21 165.573 52.0165 164.375 52.395C163.447 49.1236 164.986 45.5277 167.235 43.2078Z" fill="black"/>
<path d="M176.008 37.2748C176.255 37.3372 176.473 37.4968 176.612 37.7139C176.736 37.9115 176.778 38.1271 176.761 38.3496C176.761 38.3496 176.763 38.3492 176.764 38.3492L176.766 38.3494L176.767 38.3498C176.714 39.0261 176.629 39.6951 176.543 40.3644C176.408 41.424 176.272 42.4842 176.268 43.5747C177.118 42.0729 181.057 35.3166 182.296 39.6206C182.265 40.6107 182.033 41.6067 181.8 42.604C181.396 44.3373 180.991 46.0749 181.642 47.7937C181.88 47.7379 182.137 47.6141 182.398 47.4878C183.068 47.1646 183.772 46.8251 184.279 47.5677C184.555 48.0044 184.449 48.6519 184 48.9148C178.46 52.6717 178.931 44.7551 179.984 41.3659C178.782 43.0521 177.74 44.8544 176.7 46.6525C176.522 46.9603 176.344 47.2681 176.166 47.5751C176.132 48.812 176.052 50.17 175.186 51.1092C174.666 52.0385 173.227 52.2512 172.851 51.0587C172.664 50.0371 173.163 49.0512 173.617 48.1525C173.68 48.0279 173.742 47.905 173.802 47.7839C174.243 47.2423 174.28 45.4001 174.32 43.4038C174.382 40.3335 174.451 36.8988 176.008 37.2709L176.008 37.2748Z" fill="black"/>
<path d="M192.823 37.4913C193.373 36.119 194.192 34.0739 192.231 33.9759L192.232 33.9778C191.05 34.3675 190.768 35.9165 190.53 37.2168C190.478 37.5028 190.428 37.7768 190.371 38.0238C190.145 38.5822 189.93 39.1487 189.714 39.7159C189.035 41.5029 188.353 43.297 187.321 44.8685C185.067 41.9468 183.606 45.7125 185.207 47.7002C187.652 49.56 189.505 45.6384 190.368 43.7518C191.645 48.7251 195.95 43.9146 197.676 41.9857L197.752 41.9013C198.599 40.9684 197.197 39.4161 196.294 40.2819C195.908 40.626 195.538 41.0016 195.167 41.3782C194.365 42.1924 193.558 43.0115 192.568 43.5277C192.277 41.7422 192.279 39.8943 192.573 38.1421C192.637 37.9559 192.726 37.7342 192.823 37.4913Z" fill="black"/>
<path fill-rule="evenodd" clip-rule="evenodd" d="M203.782 29.0986C205.384 28.6708 206.559 30.2478 206.913 31.6569C210.898 30.794 208.127 36.1137 206.887 37.5252C206.887 37.5368 206.886 37.5486 206.885 37.5605C206.884 37.5771 206.883 37.5939 206.883 37.6112C206.881 37.9721 206.886 38.3327 206.907 38.6925C207.243 38.5259 207.554 38.279 207.866 38.0316C208.385 37.619 208.906 37.2054 209.549 37.1622C210.437 37.2269 210.829 38.4709 210.127 39.0225C210.001 39.1198 209.862 39.2309 209.713 39.3503C208.257 40.5128 205.827 42.4541 204.877 39.9798C195.73 50.5412 198.016 31.0291 203.783 29.1004L203.782 29.0986ZM204.259 31.2025C201.599 33.3641 200.898 37.4904 200.872 40.8136C202.211 39.9345 203.27 38.6932 204.31 37.4739L204.311 37.4727C204.455 37.3044 204.598 37.1366 204.742 36.9701C204.769 36.5651 204.831 36.1258 204.895 35.6717C205.119 34.0864 205.369 32.3208 204.261 31.2019L204.259 31.2025Z" fill="black"/>
<path d="M216.411 29.5417C216.663 28.5923 216.86 26.8451 215.435 26.7875L215.438 26.7906C214.336 26.7973 214.196 28.7465 214.075 30.4232C214.017 31.2398 213.963 31.9918 213.804 32.4233C213.605 33.1783 213.23 33.887 212.854 34.5998C212.282 35.6828 211.705 36.7752 211.728 38.0539C211.582 39.2599 212.911 40.4315 213.947 39.551C215.174 37.6232 215.388 36.4025 215.58 35.3116C215.888 33.5602 216.137 32.1431 220.423 28.6706C220.33 30.1534 219.951 31.5942 219.574 33.0272L219.574 33.0284C219.492 33.3426 219.409 33.6564 219.33 33.9702C219.208 34.4524 219.078 34.9332 218.937 35.4095C218.686 36.3209 219.818 37.1337 220.583 36.5921C221.093 36.1218 221.263 35.4258 221.434 34.727C221.548 34.2605 221.662 33.7928 221.878 33.3902C222.87 30.6707 224.212 27.9956 226.433 26.1022C226.494 26.7435 226.192 27.7447 225.869 28.8149C225.186 31.0802 224.409 33.6545 226.787 33.7776C227.558 33.5601 227.53 32.8879 227.503 32.2434C227.496 32.0753 227.489 31.9088 227.496 31.753C227.612 31.0341 227.8 30.3259 227.987 29.6178C228.31 28.3983 228.633 27.1791 228.59 25.9059C227.979 20.8115 223.807 25.3576 222.482 27.4626C221.456 24.382 218.942 26.9699 217.286 28.6747C216.953 29.017 216.655 29.3236 216.411 29.5417Z" fill="black"/>
<path d="M241.757 19.4928C242.175 20.3885 241.658 21.2809 241.171 22.1226C240.982 22.4477 240.798 22.7653 240.674 23.0725C240.019 25.1082 239.453 27.1773 239.041 29.28C239.231 31.7948 236.072 30.7724 236.911 28.2201C235.877 29.2004 234.342 30.1355 232.904 29.4541C232.766 29.8284 232.69 30.2689 232.613 30.7178C232.441 31.7155 232.261 32.7546 231.388 33.2001C230.523 33.4888 229.853 32.6804 229.778 31.8707C229.62 29.9957 229.931 27.623 231.34 26.309C231.498 25.6212 231.628 24.9276 231.758 24.2343L231.759 24.2331C231.885 23.5608 232.011 22.8888 232.162 22.2224C232.493 20.9458 234.216 21.3272 234.321 22.551C234.592 23.1158 234.559 23.7912 233.976 24.1016C233.812 25.0416 233.634 25.9782 233.445 26.914C234.552 28.6356 236.771 25.2787 237.891 23.5846C238.086 23.2898 238.247 23.0454 238.364 22.8868C238.439 22.6914 238.521 22.4429 238.612 22.1661C239.159 20.506 240.041 17.8289 241.759 19.494L241.757 19.4928Z" fill="black"/>
<path fill-rule="evenodd" clip-rule="evenodd" d="M252.601 23.3329C254.343 20.2145 253.619 15.3003 249.086 16.3233L249.087 16.3251C246.768 16.7543 245.339 18.7963 244.355 20.7929L244.352 20.7985C243.216 22.6566 241.465 25.5197 243.235 27.5144C246.563 29.8213 250.908 26.2141 252.601 23.3329ZM249.295 19.5233C249.945 19.4357 250.605 19.3469 250.666 18.5419C252.13 19.249 251.003 22.1357 250.202 23.1192C249.051 24.9839 242.982 28.3242 245.251 23.6266C245.999 22.0983 246.938 20.4306 248.526 19.6859C248.751 19.5966 249.022 19.5601 249.295 19.5233Z" fill="black"/>
<path fill-rule="evenodd" clip-rule="evenodd" d="M229.216 2.89521C229.792 2.8187 230.211 2.29579 230.151 1.72724C230.092 1.15869 229.576 0.759802 229 0.836303C220.044 2.02506 211.341 3.34523 202.903 4.78118C191.281 3.99661 178.053 3.56847 163.638 3.69681C122.586 4.06228 69.3012 7.45862 20.3247 22.5068C24.739 20.2898 29.1942 18.1571 33.7703 16.2873C36.4163 17.6279 37.1688 13.6481 34.1577 14.2826C27.9698 16.3422 22.1459 19.3603 16.3345 22.3719C13.6493 23.7634 10.9668 25.1536 8.25233 26.4472C8.20561 26.4791 8.15791 26.5106 8.10929 26.5416C6.39665 27.1487 4.6912 27.7714 2.99372 28.4101C2.70893 28.5019 2.48668 28.7007 2.35969 28.9462C1.69413 29.302 1.21907 29.7096 1.09373 30.2284C0.666912 31.9951 1.09819 30.2307 1.09819 30.2307C0.460522 33.4048 5.68184 32.586 12.0213 31.5919C13.8559 31.3043 15.7843 31.0019 17.6913 30.7773C25.1468 29.8996 28.9978 29.9774 32.1595 30.0414C32.601 30.0503 33.0291 30.059 33.4517 30.0647C34.0138 29.9796 34.7585 30.2348 35.4988 30.4885C36.7911 30.9313 38.0697 31.3695 38.3381 29.9834C38.6155 27.2138 24.2834 28.1609 14.857 28.7838C11.4716 29.0075 8.71894 29.1894 7.50306 29.1423C62.6106 11.9514 118.85 6.1725 163.592 5.77418C174.482 5.67724 184.687 5.89905 194.025 6.35214C162.279 12.1876 134.536 18.9601 111.547 27.1692C80.5005 38.2557 58.0194 51.4259 46.0933 63.1316C37.9693 71.1054 34.1045 80.0284 35.1074 87.5226C36.125 95.1268 42.0916 100.876 52.7294 102.537C87.7335 108 123.591 97.6828 152.656 88.1912L152.657 88.191C156.612 86.8994 160.442 85.6488 164.126 84.4882C179.635 79.6031 210.131 65.7388 232.513 52.1624C243.668 45.3965 252.981 38.2558 257.328 31.5378C259.516 28.1565 260.535 24.7427 259.721 21.488C258.908 18.2365 256.332 15.4119 251.94 13.0406C249.772 11.8708 246.015 10.6962 240.974 9.59122C235.904 8.47994 229.449 7.42134 221.826 6.51484C218.611 6.13252 215.186 5.77705 211.568 5.45601C217.334 4.54656 223.218 3.69137 229.216 2.89521ZM112.205 29.817C137.122 20.9196 167.691 12.884 202.947 6.87083C209.719 7.33194 215.936 7.91439 221.513 8.57759C229.089 9.4785 235.474 10.5272 240.461 11.6202C245.476 12.7196 248.993 13.8462 250.892 14.8716C255.018 17.0988 257.059 19.5488 257.683 22.0452C258.307 24.5382 257.584 27.3454 255.571 30.4555C251.517 36.7202 242.597 43.6435 231.458 50.4C209.253 63.8686 178.923 76.2747 163.546 81.1183C159.833 82.2881 155.986 83.5432 152.025 84.8358L152.02 84.8374C122.904 94.3375 87.5795 105.863 53.1178 100.484C43.1277 98.9252 38.0573 93.6862 37.1876 87.1879C36.3032 80.5795 39.7008 72.286 47.5473 64.5845C59.133 53.2129 81.2561 40.8685 112.205 29.817Z" fill="black"/>
</svg>
