<svg width="751" height="501" viewBox="0 0 751 501" fill="none" xmlns="http://www.w3.org/2000/svg">
<rect width="750" height="500" fill="white"/>
<path d="M260.244 245C243.937 249.025 217.213 258.264 200 266.953C215.401 265.124 231.254 263.752 244.843 265.124C243.937 272.899 241.22 281.132 236.237 291.651C251.638 287.992 267.491 285.248 284.251 278.845C283.345 283.876 280.627 294.853 277.003 304C297.84 298.512 311.429 292.566 330 282.961C315.052 285.248 304.181 285.248 294.216 285.248C300.557 275.643 303.728 265.124 305.54 257.349C295.575 257.806 271.568 263.752 257.073 269.698C259.338 260.55 260.244 251.403 260.244 245Z" fill="#FEB74B" stroke="black" stroke-width="1.5" stroke-linejoin="round"/>
<path d="M349.516 100C334.731 105.405 311.882 114.863 285 122.519C301.577 123.42 313.674 122.519 327.563 122.519C323.082 130.626 319.498 139.183 315.466 151.344C332.939 147.29 351.308 142.336 366.093 136.031C362.957 142.786 359.821 149.092 357.581 159C376.846 149.992 390.287 145.489 410 136.931C397.455 136.031 387.151 136.931 377.742 138.282C380.43 129.725 383.118 123.87 387.151 116.214C372.366 120.718 358.029 124.321 339.211 127.023C341.87 116.331 345.845 107.843 349.399 100.25L349.516 100Z" fill="#FEB74B" stroke="black" stroke-width="1.5" stroke-linejoin="round"/>
<path d="M403.782 393.23L403.233 360.065C403.345 359.801 403.461 359.53 403.581 359.252C461.064 391.129 508.13 410.626 551.562 403.748C611.879 394.196 637.173 344.342 638.248 298.42C642.434 372.532 594.542 434.912 537.979 439.527C490.514 443.399 453.893 422.111 421.554 403.312C419.757 402.267 412.843 398.348 403.782 393.23Z" fill="#DA3C3C"/>
<path d="M476.237 236.491C491.903 244.533 505.414 251.432 509.136 253.214C557.277 276.259 571.076 282.865 569.9 333.355C570.39 333.218 570.874 333.066 571.352 332.898C592.524 312.223 592.402 272.885 566.468 252.399C545.757 236.04 513.195 217.258 479.57 199.678C479.216 200.265 478.979 200.713 478.877 201C477.727 204.208 476.653 225.648 476.237 236.491Z" fill="#DA3C3C"/>
<path d="M403.782 393.23L403.233 360.065C403.345 359.801 403.461 359.53 403.581 359.252C461.064 391.129 508.13 410.626 551.562 403.748C611.879 394.196 637.173 344.342 638.248 298.42C642.434 372.532 594.542 434.912 537.979 439.527C490.514 443.399 453.893 422.111 421.554 403.312C419.757 402.267 412.843 398.348 403.782 393.23Z" stroke="black" stroke-width="2" stroke-linejoin="round"/>
<path d="M476.237 236.491C491.903 244.533 505.414 251.432 509.136 253.214C557.277 276.259 571.076 282.865 569.9 333.355C570.39 333.218 570.874 333.066 571.352 332.898C592.524 312.223 592.402 272.885 566.468 252.399C545.757 236.04 513.195 217.258 479.57 199.678C479.216 200.265 478.979 200.713 478.877 201C477.727 204.208 476.653 225.648 476.237 236.491Z" stroke="black" stroke-width="2" stroke-linejoin="round"/>
<path d="M403.782 393.23L403.233 360.065C403.345 359.801 403.461 359.53 403.581 359.252C393.342 353.574 382.773 347.504 371.836 341.12C354.174 331.207 339.847 322.516 331.377 317.259L342.253 358.637C346.466 360.929 381.571 380.683 403.782 393.23Z" fill="#C9C9C9"/>
<path d="M479.57 199.678C479.216 200.265 478.979 200.713 478.877 201C477.727 204.208 476.653 225.648 476.237 236.491C464.536 230.484 451.633 223.841 440.707 218.215L440.706 218.214C429.574 212.483 420.497 207.809 416.838 205.944L408.692 164.63L408.693 164.631C430.117 174.75 455.125 186.896 479.57 199.678Z" fill="#C9C9C9"/>
<path d="M403.782 393.23L403.233 360.065C403.345 359.801 403.461 359.53 403.581 359.252C393.342 353.574 382.773 347.504 371.836 341.12C354.174 331.207 339.847 322.516 331.377 317.259L342.253 358.637C346.466 360.929 381.571 380.683 403.782 393.23Z" stroke="black" stroke-width="2" stroke-linejoin="round"/>
<path d="M479.57 199.678C479.216 200.265 478.979 200.713 478.877 201C477.727 204.208 476.653 225.648 476.237 236.491C464.536 230.484 451.633 223.841 440.707 218.215L440.706 218.214C429.574 212.483 420.497 207.809 416.838 205.944L408.692 164.63L408.693 164.631C430.117 174.75 455.125 186.896 479.57 199.678Z" stroke="black" stroke-width="2" stroke-linejoin="round"/>
<path d="M513.158 157.718C493.527 146.79 471.125 135.151 445.644 122.545C431.454 136.475 422.067 148.134 414.882 157.057C412.63 159.855 410.593 162.384 408.693 164.63C430.117 174.75 455.125 186.896 479.571 199.678C484.006 192.316 506.784 163.159 513.158 157.718Z" fill="white"/>
<path d="M430.544 308.725C420.763 321.715 408.792 347.132 403.581 359.252C383.743 348.251 362.664 335.775 340.066 322.4C337.195 320.7 334.299 318.986 331.378 317.259C332.321 315.721 333.488 313.596 334.9 311.025C340.104 301.55 348.64 286.008 361.587 271.361C372.134 276.523 384.848 283.59 398.781 291.334C408.851 296.932 419.558 302.883 430.544 308.725Z" fill="white"/>
<path d="M513.158 157.718C493.527 146.79 471.125 135.151 445.644 122.545C431.454 136.475 422.067 148.134 414.882 157.057C412.63 159.855 410.593 162.384 408.693 164.63C430.117 174.75 455.125 186.896 479.571 199.678C484.006 192.316 506.784 163.159 513.158 157.718Z" stroke="black" stroke-width="2" stroke-linejoin="round"/>
<path d="M430.544 308.725C420.763 321.715 408.792 347.132 403.581 359.252C383.743 348.251 362.664 335.775 340.066 322.4C337.195 320.7 334.299 318.986 331.378 317.259C332.321 315.721 333.488 313.596 334.9 311.025C340.104 301.55 348.64 286.008 361.587 271.361C372.134 276.523 384.848 283.59 398.781 291.334C408.851 296.932 419.558 302.883 430.544 308.725Z" stroke="black" stroke-width="2" stroke-linejoin="round"/>
<path d="M403.581 359.253C461.064 391.13 508.131 410.627 551.562 403.749C611.887 394.196 637.18 344.329 638.249 298.403C639.416 248.278 610.046 211.654 513.158 157.718C506.784 163.16 484.006 192.316 479.571 199.678C513.196 217.259 545.758 236.041 566.469 252.4C602.237 280.653 588.906 344.767 538.329 346.324C508.58 347.239 467.945 328.615 430.544 308.726C420.763 321.715 408.792 347.133 403.581 359.253Z" fill="#FF5555" stroke="black" stroke-width="2" stroke-linejoin="round"/>
<path d="M548.949 263.168C552.922 260.392 584.499 277.5 594.999 292.083C604.528 294.167 611.073 293.398 614.702 286.509C623.234 270.315 580.508 236.773 560.886 240.134C549.41 241.369 542.711 255.961 548.908 263.17C537.625 263.914 525.631 273.866 532.373 287.293C533.612 286.752 534.809 286.456 535.873 286.437C547.375 286.233 572.499 301.5 586.722 317.456C594.035 317.464 598.013 315.642 600.547 309.755C608.05 292.323 562.323 265.588 551.793 263.187C550.858 263.112 549.906 263.106 548.949 263.168Z" fill="#FFD7BB"/>
<path d="M525.542 316.804C534.603 316.781 553.499 327.5 566.499 341.058C579.829 344.491 589.309 346.014 593.238 336.85C599.677 318.857 556.108 288.64 535.873 286.437C528.38 286.571 514.24 300.461 525.542 316.804Z" fill="#FFD7BB"/>
<path d="M526.009 348C522.37 346.348 519.262 344.937 516.999 344.069C506.214 329.947 520.498 319.785 525.472 317.456C532.272 314.273 577.383 340.036 570.962 354.877C564.342 370.176 543.688 356.026 526.009 348Z" fill="#FFD7BB"/>
<path d="M535.873 286.437C534.809 286.456 533.612 286.752 532.373 287.293C525.631 273.866 537.625 263.914 548.908 263.17C542.711 255.961 549.41 241.369 560.886 240.134C580.508 236.773 623.234 270.315 614.702 286.509C611.073 293.398 604.528 294.167 594.999 292.083C584.499 277.5 552.922 260.392 548.949 263.168C549.906 263.106 550.858 263.112 551.793 263.187C562.323 265.588 608.05 292.323 600.547 309.755C598.013 315.642 594.035 317.464 586.722 317.456C572.499 301.5 547.375 286.233 535.873 286.437ZM535.873 286.437C556.108 288.64 599.677 318.857 593.238 336.85C589.309 346.014 579.829 344.491 566.499 341.058C553.499 327.5 534.603 316.781 525.542 316.804C514.24 300.461 528.38 286.571 535.873 286.437ZM516.999 344.069C519.262 344.937 522.37 346.348 526.009 348C543.688 356.026 564.342 370.176 570.962 354.877C577.383 340.036 532.272 314.273 525.472 317.456C520.498 319.785 506.214 329.947 516.999 344.069Z" stroke="black" stroke-width="2" stroke-linecap="round" stroke-linejoin="round"/>
<path d="M603.513 272.271C598.249 274.192 594.508 280.435 594.508 286.789M589.884 295.141C585.797 295.141 578.618 303.008 580.7 310.212M580.7 323.47C578.228 324.843 573.019 329.795 571.96 338.62M561.888 344.181C559.788 345.338 555.368 349.521 554.492 357" stroke="black" stroke-width="2" stroke-linecap="round" stroke-linejoin="round"/>
<path d="M716.498 352.082C694.484 357.363 650.934 446.692 658.112 453.896C674.384 437.087 714.106 378.496 716.498 352.082Z" fill="#D9D9D9" stroke="black" stroke-width="2" stroke-linejoin="round"/>
<path d="M682.839 456.06C683.251 456.359 683.822 456.301 684.165 455.925C694.764 444.322 718.413 411.911 728.421 374.828C728.542 374.382 728.341 373.912 727.936 373.69C726.317 372.804 724.45 371.88 722.447 370.89C717.761 368.572 712.337 365.89 707.645 362.473C700.986 357.623 696.219 351.576 697.339 343.487C700.924 317.583 682.565 301.705 666.832 288.788C658.991 282.35 654.081 280.615 649.512 279.228C649.222 279.14 648.933 279.054 648.646 278.967C644.528 277.731 640.643 276.565 634.748 271.964C631.592 269.5 628.769 266.524 626.157 263.552C625.248 262.518 624.358 261.475 623.487 260.455C621.884 258.579 620.347 256.78 618.882 255.251C616.632 252.903 614.362 250.978 611.992 250.313C610.773 249.971 609.529 249.961 608.274 250.387C607.033 250.807 605.846 251.632 604.691 252.855C604.652 252.897 604.617 252.941 604.585 252.988C598.066 262.801 599.911 273.925 606.104 284.832C612.194 295.557 622.589 306.279 633.896 315.798C633.546 316.674 633.142 317.645 632.699 318.708C628.679 328.362 621.497 345.608 623.541 367.674C612.599 391.947 599.805 408.855 588.98 417.986C588.747 418.183 588.616 418.476 588.625 418.781C588.635 419.086 588.783 419.37 589.027 419.552C591.995 421.765 597.696 424.23 606.727 425.716C615.706 427.195 628.036 427.716 644.374 426.029C648.619 429.237 655.403 434.607 662.25 440.028C662.853 440.505 663.456 440.982 664.058 441.459C671.654 447.471 679.069 453.323 682.839 456.06Z" fill="#FFD7BB" stroke="black" stroke-width="2" stroke-linejoin="round"/>
<path d="M627.434 375.528C629.348 378.249 635.761 384.461 646.098 387.534" stroke="black" stroke-width="2" stroke-linecap="round" stroke-linejoin="round"/>
<path d="M658.111 453.895C667.683 462.732 720.486 486.873 749.999 500V370.811C743.777 367.129 735.258 362.454 716.498 352.081C714.105 378.495 674.383 437.086 658.111 453.895Z" fill="white"/>
<path d="M749.999 500C720.486 486.873 667.683 462.732 658.111 453.895C674.383 437.086 714.105 378.495 716.498 352.081C735.258 362.454 743.777 367.129 749.999 370.811" stroke="black" stroke-width="2" stroke-linecap="round" stroke-linejoin="round"/>
<path d="M734.826 381.49C738.655 387.637 730.997 390.775 726.69 391.576C718.554 391.576 719.512 385.332 720.469 381.49C721.426 377.648 730.04 373.806 734.826 381.49Z" stroke="black" stroke-width="2"/>
<path d="M616.861 267.351C618.616 267.511 622.796 266.87 625.476 263.028" stroke="black" stroke-width="2" stroke-linecap="round" stroke-linejoin="round"/>
<path d="M73.1648 47.521C71.9643 49.3545 67.5713 52.1412 65.5249 53.3053C66.4116 55.138 68.6516 58.473 70.518 57.1525C72.8509 55.5017 78.3762 50.7406 80.5045 48.6669C82.6327 46.5933 81.6233 43.4283 79.9452 43.1962C78.2671 42.9641 77.1894 45.0517 75.9343 44.6151C74.6792 44.1786 74.6656 45.229 73.1648 47.521Z" fill="#FFD7BB" stroke="black" stroke-linecap="round" stroke-linejoin="round"/>
<path d="M74.404 100.33C101.28 101.365 117.944 86.0923 121.945 79.1896C121.945 79.1896 103.064 88.1643 87.5592 88.1643C100.441 82.0566 111.52 75.479 115.749 67.0221C102.973 75.7843 85.9272 76.1698 75.6318 79.1898C75.6318 88.1643 74.404 93.3325 74.404 100.33Z" fill="#FFD7BB" stroke="black" stroke-width="1.5" stroke-linecap="round" stroke-linejoin="round"/>
<path d="M114.096 87.7412C117.998 84.5712 120.643 81.4368 121.946 79.1895C121.946 79.1895 117.933 81.0968 112.089 83.1528L114.096 87.7412Z" fill="black"/>
<path d="M108.741 75.5018C111.81 72.8754 114.225 70.0708 115.749 67.022C113.007 68.9028 110.068 70.3977 107.041 71.6155L108.741 75.5018Z" fill="black"/>
<path d="M75.082 62.7763C73.312 64.0688 68.2186 65.1275 65.8932 65.4954C66.0768 67.5229 66.997 71.4336 69.2091 70.8559C71.9742 70.1338 78.8234 67.6266 81.5462 66.4366C84.2689 65.2466 84.4403 61.929 82.9518 61.1201C81.4633 60.3112 79.7188 61.8847 78.6982 61.0337C77.6776 60.1826 77.2945 61.1608 75.082 62.7763Z" fill="#FFD7BB" stroke="black" stroke-linecap="round" stroke-linejoin="round"/>
<path d="M88.4993 75.4787C90.8484 84.8752 91.7881 95.6813 90.8484 99.9097C65.0077 105.078 46.6844 96.6209 39.1671 93.3321C32.5969 90.4576 25.5422 83.9356 27.8912 74.539C39.1673 71.72 34.469 67.4916 42.9259 62.7933C46.2147 62.3235 54.5775 57.6252 69.2362 50.1079C69.9879 51.9872 71.7419 56.5289 72.525 58.5648C71.8985 59.0347 69.5181 60.5381 65.0077 62.7933L65.0078 62.7934C66.8871 66.552 69.2362 71.2502 69.706 71.72C70.0819 72.0959 63.285 74.3824 59.8396 75.4787C60.7792 75.9485 72.525 76.8881 88.4993 75.4787Z" fill="white" stroke="black" stroke-width="1.5" stroke-linecap="round" stroke-linejoin="round"/>
<path d="M45.2734 80.1771C48.5622 79.2375 55.7036 76.9823 59.8381 75.4788M65.0062 62.7935C61.2476 64.3596 57.9588 65.6124 52.7907 67.4917" stroke="black" stroke-linecap="round" stroke-linejoin="round"/>
<path d="M35.8177 69.4917C34.878 73.638 27.0005 75 25.0005 75.5C24.2705 75.6825 23.5005 76.5 22.0005 75C20.5005 73.5 19.5005 73.5 21.0005 70C20.7393 69.746 18.8889 71.6616 18.5005 71.3532C18.0277 70.9777 17.4156 70.5354 16.5547 69.9615C12.7961 70.4313 12.8704 70.0302 11.4574 67.0604C9.03743 61.9744 4.87977 55.3149 5.81943 51.5563C6.75909 47.7976 13.3367 44.039 19.4445 45.9183C25.5522 47.7976 32.5289 59.1554 35.8177 69.4917Z" fill="#FFD7BB" stroke="black" stroke-width="1.5" stroke-linecap="round" stroke-linejoin="round"/>
<path d="M9.10802 41.6893C1.59076 46.5756 3.7833 50.9293 5.81922 52.4954C7.2287 50.146 9.57786 44.9783 18.0348 45.918C26.4917 46.8577 26.4917 55.3146 29.3107 65.181C34.0089 65.181 49.9831 57.6637 48.1038 55.3146C56.5607 52.9654 49.5133 51.0861 45.2848 50.1465C48.5736 49.2068 47.634 50.1465 54.2116 46.3878C60.7892 42.6292 50.9228 45.4482 44.3452 44.5085C44.721 44.5085 50.4529 42.9424 53.2719 42.1594C62.1987 39.3404 48.1038 39.3404 41.0564 39.8102C43.8753 38.4007 47.634 36.0516 41.5262 34.6419C49.5133 33.7022 46.6943 30.8833 36.8279 32.2928C26.9615 33.7022 18.5046 35.5816 9.10802 41.6893Z" fill="#D25625" stroke="black" stroke-width="1.5" stroke-linecap="round" stroke-linejoin="round"/>
<path d="M15.7215 52.9621C14.8636 53.8884 12.5203 55.9385 10.0103 56.7275" stroke="black" stroke-linecap="round" stroke-linejoin="round"/>
<path d="M6.75954 57.7485C6.12923 58.0757 4.49506 58.7216 3.00088 58.6878" stroke="black" stroke-linecap="round" stroke-linejoin="round"/>
<path d="M17.0536 60.0953C17.0536 58.7812 15.9883 57.716 14.6742 57.716C13.3602 57.716 12.2949 58.7812 12.2949 60.0953C12.2949 61.4094 13.3602 62.4746 14.6742 62.4746C15.9883 62.4746 17.0536 61.4094 17.0536 60.0953Z" fill="white" stroke="black"/>
<ellipse cx="15.1447" cy="60.095" rx="0.939657" ry="0.939657" transform="rotate(-90 15.1447 60.095)" fill="black"/>
<path d="M116.101 48.7745L137.132 60.0873M130.678 97.2903L159.044 113.452M110.088 56.9287C116.818 60.5488 121.419 62.3009 122.879 62.7244" stroke="black" stroke-width="1.5" stroke-linecap="round"/>
<path d="M140.213 201.3C142.101 195.9 148.349 194.266 153.003 194.619C158.821 195.061 167.69 198.163 171.38 201.843C175.069 205.524 178.12 208.184 182.058 211.155C185.996 214.125 185.003 216.965 180.568 215.414C180.786 217.55 183.666 219.37 189.819 223.116C195.972 226.861 196.107 233.596 187.487 229.784C178.866 225.972 169.501 224.29 176.099 228.192C182.698 232.093 191.354 241.494 183.372 238.702C179.033 237.185 176.749 235.679 175.567 234.621C177.382 237.027 179.652 241.179 169.963 237.199C156.908 231.837 136.809 222.417 136.489 211.948C136.233 203.573 138.325 206.699 140.213 201.3Z" fill="#F3CA80" stroke="black" stroke-width="1.5" stroke-linejoin="round"/>
<path d="M98.5596 196.841L91.982 195.901C91.2302 198.156 90.1026 213.128 89.6328 219.392C89.6328 219.549 94.613 217.325 97.6199 216.573C97.244 213.191 97.9331 202.635 98.5596 196.841Z" fill="#FFD7BB" stroke="black"/>
<path d="M95.2701 195.494C66.2856 194.206 48.3153 212.255 44 220.836C62.3703 211.467 70.839 209.056 83.5243 209.056C64.3486 217.857 58.1536 224.091 52.6115 233.169C60.7926 228.341 79.2959 220.836 92.9326 218.957C92.3483 208.766 92.9326 204.828 95.2701 195.494Z" fill="#FFD7BB" stroke="black" stroke-width="1.5" stroke-linejoin="round"/>
<path d="M111.882 197.535C108.787 197.535 94.5 189.5 63.5 198.615C61.3414 207.794 67.5911 219.104 69.0007 228.5C71.9576 227.317 107.067 215.784 112.961 214.814C116.739 218.054 121.056 216.974 123.215 214.814C123.215 221.293 123.072 225.073 124.152 235.332C125.231 245.592 135.484 258.011 131.167 242.892C127.713 230.797 130.088 219.134 131.707 214.814C131.707 209.774 131.923 199.479 132.786 198.615C133.865 197.535 139.802 188.896 146.817 187.816C153.833 186.736 157.61 181.336 151.134 181.336C144.659 181.336 132.786 186.196 124.152 194.835C116.597 192.136 115.12 195.915 111.882 197.535Z" fill="white" stroke="black" stroke-width="1.5" stroke-linejoin="round"/>
<path d="M130.501 205.001C130.501 202.805 129.001 202.479 132.501 202.479C134.083 202.479 134.86 202.45 135.183 202.414C133.147 202.133 136.134 202.308 135.183 202.414C135.323 202.434 135.486 202.455 135.676 202.479C139.435 202.949 143.2 197.307 150.241 198.72C157.531 200.184 163.12 212.679 150.726 215.607C140.2 218.093 134.872 210.233 132 209.501C128.355 208.503 131.959 208.66 130.501 205.001Z" fill="#FFD7BB"/>
<path d="M132 209.501C134.872 210.233 140.2 218.093 150.726 215.607C163.12 212.679 157.531 200.184 150.241 198.72C143.2 197.307 139.435 202.949 135.676 202.479C131.778 201.992 139.062 202.479 132.501 202.479C129.001 202.479 130.501 202.805 130.501 205.001C131.959 208.66 128.355 208.503 132 209.501ZM132 209.501C129.129 208.769 140.02 211.696 132 209.501Z" stroke="black" stroke-linejoin="round"/>
<path d="M147.891 206.268C149.205 206.268 150.27 205.202 150.27 203.888C150.27 203.182 149.842 202.475 149.339 201.971C148.835 201.467 148.128 201.039 147.421 201.039C146.641 201.039 146.148 201.55 145.878 202.106C145.611 202.653 145.512 203.322 145.512 203.888C145.512 205.202 146.577 206.268 147.891 206.268Z" fill="white" stroke="black"/>
<path d="M148.83 212.845C150.145 212.845 151.21 211.78 151.21 210.466C151.21 209.759 150.782 209.052 150.278 208.548C149.774 208.045 149.067 207.617 148.361 207.617C147.58 207.617 147.088 208.127 146.817 208.683C146.551 209.231 146.451 209.9 146.451 210.466C146.451 211.78 147.516 212.845 148.83 212.845Z" fill="white" stroke="black"/>
<circle cx="148.36" cy="209.057" r="0.469829" fill="black"/>
<circle cx="147.421" cy="202.479" r="0.469829" fill="black"/>
<path d="M147.984 206.431C149.308 206.431 150.484 205.465 150.484 204.153C150.484 203.452 150.01 202.771 149.481 202.3C148.942 201.821 148.203 201.431 147.484 201.431C146.702 201.431 146.181 201.887 145.882 202.434C145.592 202.963 145.484 203.608 145.484 204.153C145.484 205.465 146.661 206.431 147.984 206.431Z" fill="white" stroke="black"/>
<path d="M148.984 212.431C150.308 212.431 151.484 211.465 151.484 210.153C151.484 209.452 151.01 208.771 150.481 208.3C149.942 207.821 149.203 207.431 148.484 207.431C147.702 207.431 147.181 207.887 146.882 208.434C146.592 208.963 146.484 209.608 146.484 210.153C146.484 211.465 147.661 212.431 148.984 212.431Z" fill="white" stroke="black"/>
<circle cx="149.984" cy="210.931" r="1" fill="black"/>
<circle cx="148.984" cy="204.931" r="1" fill="black"/>
<path d="M147.711 243.59L168.862 253.494M92.9142 236.422L121.113 247.955M201.642 226.651C208.306 229.189 212.938 231.241 214.339 231.457" stroke="black" stroke-width="1.5" stroke-linecap="round"/>
<path d="M212.605 133.612C241.922 125.719 253.48 109.651 258.178 101.664C251.6 97.9049 245.023 91.7971 236.566 83.8101C220.592 107.301 178.364 126.434 193.341 123.745C211.665 120.457 223.88 116.698 239.855 99.3144C231.398 123.745 175.958 143.478 212.605 133.612Z" fill="#FFD7BB" stroke="black" stroke-width="1.5"/>
<path d="M263.346 45.7541C266.635 42.6583 277.416 42.935 276.032 55.6214C274.818 66.7463 276.032 88.5085 267.32 85.6895C263.997 92.9054 253.999 115 236.566 124.5C236.566 124.5 221.168 109.728 216 105.5C210.832 101.272 236.566 84.5 236.566 84.5C237.819 82.9339 240.043 79.0188 238.915 78.6429C237.506 78.1731 228.109 73.4748 230.928 68.3067C233.747 63.1386 240.325 54.2118 241.734 53.2722C243.144 52.3325 255.359 53.2723 263.346 45.7541Z" fill="white" stroke="black" stroke-width="1.5"/>
<path d="M245.492 64.0771C245.492 65.9565 245.022 66.8961 242.673 68.7754C244.176 69.5272 250.816 72.5341 253.949 73.9435L251.13 82.4005C248.467 81.6174 241.921 80.1453 238.914 78.6418" stroke="black"/>
<path d="M267.575 85.6892C264.286 85.2194 256.299 83.8099 251.131 82.4004L253.95 73.9435C257.708 74.5699 262.407 74.4133 265.696 74.8831C265.696 73.4736 264.286 66.4262 266.635 62.1978" stroke="black"/>
<path d="M284.421 89.5285L303.918 100.324M260.263 108.929L273.379 118.059M282.154 78.5933C288.393 82.0477 292.667 83.7348 294.024 84.1465" stroke="black" stroke-width="1.5" stroke-linecap="round"/>
<path d="M251.132 10.5164C259.401 16.9061 261.468 36.0438 261.468 44.8139C258.649 47.1631 252.26 51.3917 249.253 49.5124C245.494 47.1632 245.024 43.4046 245.024 41.9951C245.024 40.5856 246.903 41.0555 249.253 40.1158C251.602 39.1762 246.903 38.7063 245.024 37.7667C243.145 36.827 246.903 33.5382 246.903 30.7192C246.903 27.9003 241.265 23.6716 240.326 19.4432C239.386 15.2147 240.796 2.52936 251.132 10.5164Z" fill="#FFD7BB" stroke="black" stroke-width="1.5"/>
<path d="M236.567 40.1159C232.808 40.8676 233.122 23.5153 233.748 14.7451H245.024C246.903 27.4305 241.265 39.1762 236.567 40.1159Z" fill="#FFD7BB" stroke="black" stroke-width="1.5"/>
<path d="M252.927 11.8397L253.011 11.9267C248.782 14.2758 238.916 15.6854 229.52 15.6854C222.002 15.6854 221.532 9.57764 227.64 9.57764C222.942 9.57764 210.603 3.00058 229.519 3C244.443 2.99954 249.182 7.93768 252.927 11.8397Z" fill="#D9D9D9" stroke="black" stroke-width="1.5" stroke-linejoin="round"/>
<path d="M247.844 21.7925C248.627 22.4189 251.32 22.5442 252.072 21.7925" stroke="black"/>
</svg>
