<svg width="96" height="96" viewBox="0 0 96 96" fill="none" xmlns="http://www.w3.org/2000/svg">
<path fill-rule="evenodd" clip-rule="evenodd" d="M28.2097 0.288853C33.3294 0.0552555 34.964 0 48.0001 0C61.036 0 62.6706 0.0552555 67.7903 0.288853C72.8994 0.521879 76.3887 1.33337 79.4418 2.52003C82.5983 3.74652 85.2751 5.3878 87.9437 8.05626C90.6122 10.7249 92.2535 13.4018 93.4802 16.5582C94.6666 19.6113 95.4781 23.1006 95.7111 28.2097C95.9447 33.3294 96 34.964 96 48.0001C96 61.036 95.9447 62.6706 95.7111 67.7903C95.4781 72.8994 94.6666 76.3887 93.4802 79.4418C92.2535 82.5983 90.6122 85.2751 87.9437 87.9437C85.2751 90.6122 82.5983 92.2535 79.4418 93.4802C76.3887 94.6666 72.8994 95.4781 67.7903 95.7111C62.6706 95.9447 61.036 96 48.0001 96C34.964 96 33.3294 95.9447 28.2097 95.7111C23.1006 95.4781 19.6113 94.6666 16.5582 93.4802C13.4018 92.2535 10.7249 90.6122 8.05626 87.9437C5.3878 85.2751 3.74652 82.5983 2.52003 79.4418C1.33337 76.3887 0.521879 72.8994 0.288853 67.7903C0.0552555 62.6706 0 61.036 0 48.0001C0 34.964 0.0552555 33.3294 0.288853 28.2097C0.521879 23.1006 1.33337 19.6113 2.52003 16.5582C3.74652 13.4018 5.3878 10.7249 8.05626 8.05626C10.7249 5.3878 13.4018 3.74652 16.5582 2.52003C19.6113 1.33337 23.1006 0.521879 28.2097 0.288853ZM67.3967 8.92834C62.3353 8.6974 60.8171 8.64844 48.0007 8.64844C35.1841 8.64844 33.6659 8.6974 28.6044 8.92834C23.9245 9.14174 21.3829 9.9237 19.6915 10.581C17.451 11.4518 15.852 12.4919 14.1725 14.1717C12.4927 15.8513 11.4526 17.4503 10.5818 19.6908C9.92446 21.3822 9.1425 23.9237 8.9291 28.6037C8.69817 33.6651 8.6492 35.1833 8.6492 47.9999C8.6492 60.8163 8.69817 62.3345 8.9291 67.3959C9.1425 72.0759 9.92446 74.6174 10.5818 76.3088C11.4526 78.5493 12.4929 80.1483 14.1725 81.8279C15.852 83.5077 17.451 84.5478 19.6915 85.4186C21.3829 86.0759 23.9245 86.8579 28.6044 87.0713C33.6653 87.3022 35.1831 87.3512 48.0007 87.3512C60.818 87.3512 62.336 87.3022 67.3967 87.0713C72.0766 86.8579 74.6182 86.0759 76.3096 85.4186C78.5501 84.5478 80.1491 83.5077 81.8287 81.8279C83.5084 80.1483 84.5486 78.5493 85.4193 76.3088C86.0767 74.6174 86.8586 72.0759 87.072 67.3959C87.303 62.3345 87.3519 60.8163 87.3519 47.9999C87.3519 35.1833 87.303 33.6651 87.072 28.6037C86.8586 23.9237 86.0767 21.3822 85.4193 19.6908C84.5486 17.4503 83.5084 15.8513 81.8287 14.1717C80.1491 12.4919 78.5501 11.4518 76.3096 10.581C74.6182 9.9237 72.0766 9.14174 67.3967 8.92834ZM24 48.0001C24 34.7451 34.7451 24 48.0001 24C61.2549 24 72 34.7451 72 48.0001C72 61.2549 61.2549 72 48.0001 72C34.7451 72 24 61.2549 24 48.0001ZM32.4209 48C32.4209 56.6039 39.3957 63.5788 47.9999 63.5788C56.6039 63.5788 63.5788 56.6039 63.5788 48C63.5788 39.3958 56.6039 32.4209 47.9999 32.4209C39.3957 32.4209 32.4209 39.3958 32.4209 48ZM73.6224 28.1372C76.8036 28.1372 79.3825 25.5585 79.3825 22.3773C79.3825 19.1961 76.8036 16.6172 73.6224 16.6172C70.4414 16.6172 67.8625 19.1961 67.8625 22.3773C67.8625 25.5585 70.4414 28.1372 73.6224 28.1372Z" fill="url(#paint0_linear_296_30269)"/>
<defs>
<linearGradient id="paint0_linear_296_30269" x1="59.2" y1="1.56403e-06" x2="30.4" y2="96" gradientUnits="userSpaceOnUse">
<stop stop-color="#D030AA"/>
<stop offset="0.478463" stop-color="#FD2A7F"/>
<stop offset="0.720183" stop-color="#FF6438"/>
<stop offset="1" stop-color="#FFB142"/>
</linearGradient>
</defs>
</svg>
