<svg width="502" height="355" viewBox="0 0 502 355" fill="none" xmlns="http://www.w3.org/2000/svg">
<g clip-path="url(#clip0_107_27012)">
<path d="M142.711 315.171C142.154 314.634 141.767 313.945 141.598 313.189C141.429 312.433 141.486 311.644 141.762 310.921C142.039 310.232 142.446 309.604 142.961 309.071C140.382 310.866 136.644 308.585 136.912 305.48H136.8C135.145 306.51 133.609 308.113 131.57 308.222C128.103 308.407 126.079 303.95 128.538 301.473C133.537 297.052 139.1 293.269 144.414 289.233C145.834 287.822 147.619 286.97 149.177 285.747C150.608 284.706 152.056 283.299 153.918 283.263C156.638 279.912 160.887 278.033 164.303 275.444C170.681 271.302 177.042 267.131 183.243 262.725C198.072 251.877 213.977 242.691 229.222 232.47C239.31 225.329 249.209 217.964 259.557 211.185C262.723 208.9 265.776 206.47 268.92 204.16C271.206 202.448 274.354 199.848 277.085 202.184C279.138 201.07 281.091 199.746 283.192 198.727C287.176 196.867 290.733 202.51 287.245 205.277C280.5 209.332 273.843 213.593 267.348 218.065C241.515 235.597 217.935 256.001 192.563 274.008C192.751 277.58 184.594 282.179 182.102 285.073C176.391 290.133 170.689 295.202 164.995 300.28C161.702 303.127 158.449 305.948 155.642 309.23C152.111 311.599 147.257 318.791 142.711 315.171Z" fill="#A67356"/>
<path d="M156.356 312.756C153.592 312.513 151.883 309.285 153.27 306.866C154.335 305.168 156.023 303.964 157.417 302.532C164.498 295.732 171.848 289.544 179.288 283.194C192.381 272.288 205.49 260.897 219.334 251.003C231.609 242.4 243.265 233.029 254.83 223.509C260.3 219.973 276.132 204.762 281.634 207.275C284.716 206.187 287.846 209.546 286.589 212.567C286.06 213.999 284.894 214.659 283.717 215.349C280.819 217.477 278.041 219.726 275.277 222.004C269.315 227.027 263.389 232.017 257.254 236.735C238.803 251.119 221.699 267.099 204.458 282.886C194.75 291.539 185.398 300.657 175.923 309.531C171.971 312.93 166.9 307.486 170.421 303.613C166.882 305.767 159.964 312.915 156.356 312.756Z" fill="#8C5B3F"/>
<path d="M112.771 352.73C112.141 352.466 111.583 352.058 111.141 351.537C110.886 351.225 110.68 350.876 110.529 350.503C104.614 350.789 101.785 344.084 105.237 339.623C107.58 336.997 112.278 339.006 111.974 342.524C119.284 341.16 124.402 334.93 131.063 332.282C133.457 330.614 135.127 327.343 138.184 326.962C141.48 326.73 143.497 331.132 141.081 333.454C139.053 335.43 137.253 337.037 135.206 338.894C133.877 341.316 131.946 343.398 129.936 345.273C126.506 348.272 117.302 354.032 112.771 352.73Z" fill="#8C5B3F"/>
<path d="M108.587 352.987C103.654 351.729 118.233 340.13 121.308 341.273C122.26 341.652 123.025 342.392 123.437 343.331C123.849 344.27 123.875 345.334 123.511 346.292C122.123 349.078 118.498 349.64 115.991 351.123C113.662 352.16 111.232 353.571 108.587 352.987Z" fill="#8C5B3F"/>
<path d="M111.655 354.855C100.959 352.628 102.807 339.506 104.962 331.502C111.119 307.228 143.686 286.893 163.437 272.8C185.894 257.535 209.369 243.851 232.141 229.083C246.09 219.893 259.478 210.086 273.372 200.856C274.288 200.287 275.592 201.219 275.248 202.307C272.579 205.172 268.757 207.076 265.639 209.528C256.518 215.929 247.213 222.345 237.984 228.543C201.846 252.733 162.97 273.224 129.766 301.643C121.757 308.686 113.945 316.513 109.667 326.454C103.669 340.895 103.296 360.183 124.369 348.871C150.745 333.45 172.105 310.975 194.356 290.357C208.703 276.844 223.282 263.566 238.466 250.999C247.644 243.445 257.34 236.543 266.356 228.807C271.003 224.876 275.744 221.053 280.189 216.89C281.953 215.345 283.384 213.459 284.995 211.813C285.211 211.692 285.456 211.633 285.702 211.643C285.949 211.653 286.188 211.731 286.394 211.868C286.599 212.005 286.762 212.197 286.866 212.421C286.969 212.646 287.009 212.894 286.98 213.14C286.31 214.892 284.684 216.197 283.456 217.59C279.294 221.71 274.763 225.431 270.279 229.195C258.279 239.517 245.333 248.664 233.333 258.986C215.277 274.41 198.079 290.665 180.885 307.025C167.621 318.765 128.466 357.702 111.655 354.855Z" fill="black"/>
<path d="M207.192 228.452C206.352 226.777 204.436 226.312 202.846 225.656C200.184 224.546 197.514 223.444 194.772 222.541C188.473 220.764 182.595 217.746 176.245 216.092C169.703 214.95 163.908 210.594 157.098 211.076C154.518 211.052 151.959 211.546 149.572 212.527C146.435 212.89 142.726 213.978 141.241 217.021C137.325 219.784 134.699 224.187 132.12 228.184C131.653 228.042 151.318 189.243 153.628 185.86C157.149 179.459 160.065 172.778 162.829 166.025C166.06 159.134 167.9 151.518 167.237 143.902C167.313 138.404 164.339 133.798 158.435 136.518C152.698 139.238 148.811 144.642 144.859 149.422C139.633 155.54 135.88 162.743 131.892 169.695C123.561 182.839 109.482 210.065 109.58 209.473C111.137 207.156 111.279 204.273 111.887 201.622C112.228 199.047 119.809 163.856 120.942 161.343C123.141 154.815 125.811 148.464 127.853 141.885C130.965 131.789 135.011 121.877 136.112 111.283C137.26 103.014 137.343 87.9051 124.978 95.3943L125.387 95.1767L125.434 95.1513C122.217 96.874 120.703 100.501 118.729 103.402C109.105 117.804 104.542 134.592 100.228 151.181C96.5084 162.491 93.9821 174.16 92.69 185.998C92.6248 189.178 90.9188 193.686 94.2801 195.688C94.2801 195.764 94.3127 195.841 94.3271 195.913C93.4397 195.739 88.3434 172.463 88.7201 169.474C90.0386 157.72 92.9906 146.136 93.1319 134.266C92.9689 128.942 96.7902 118.703 90.2958 117.166C85.2248 116.843 80.8311 124.742 79.0491 128.282C75.264 138.135 72.8226 148.403 71.0406 158.793C69.6497 166.478 69.6134 174.388 68.4326 182.07C67.0925 186.756 67.1468 191.724 66.071 196.464C65.2705 201.321 62.851 208.324 64.6222 213.147C64.3252 213.746 64.039 214.319 63.7529 214.827C61.355 215.236 60.6053 217.703 59.9243 219.704C58.9717 222.243 57.9394 224.735 56.8926 227.23C56.0378 230.131 53.169 234.121 53.1582 237.483C51.6478 238.186 50.7277 239.985 49.8693 241.44C48.1203 244.121 46.2292 246.707 44.2043 249.186C39.7781 254.376 35.4424 259.987 30.0781 264.23C24.0327 268.219 17.5166 271.716 10.4788 273.587C9.12412 273.844 7.78031 274.138 6.42564 274.378C1.3909 275.302 2.71296 282.719 7.71149 282.088C7.02691 283.256 6.26263 284.598 6.36043 285.98C6.39961 286.564 6.54959 287.135 6.80233 287.662C6.51542 288.505 6.51048 289.418 6.78825 290.263C7.06602 291.109 7.61137 291.841 8.34173 292.348C8.22944 292.464 8.11717 292.58 8.0085 292.711C7.49531 293.268 7.1472 293.956 7.00325 294.7C6.85929 295.444 6.92518 296.213 7.19353 296.921C5.5672 298.503 5.31726 301.295 7.07399 302.884C6.18657 303.638 5.31002 304.411 4.47694 305.219C2.66588 306.982 3.25266 310.297 5.47302 311.425C5.54349 312.399 5.95828 313.315 6.64296 314.011C6.16622 314.933 6.06747 316.005 6.36768 316.999C6.52279 317.502 6.77708 317.969 7.11553 318.372C7.45397 318.775 7.8697 319.106 8.33812 319.346C8.08457 319.599 7.84551 319.868 7.61369 320.143C6.50895 321.507 6.66831 323.629 7.74046 324.945C9.60223 327.303 12.7571 326.363 14.666 324.583C17.2992 328.365 21.548 325.047 24.4457 323.4C26.3799 327.259 30.4692 325.486 33.0518 323.4C34.4753 322.312 36.0111 321.308 37.5034 320.249C38.5614 320.271 39.6167 320.366 40.6619 320.532C41.2136 321.349 42.0486 321.933 43.0054 322.171C45.3924 322.766 47.2867 320.72 49.1883 319.632L54.6903 316.071C56.2732 320.278 59.3375 324.169 64.1803 321.707C64.6717 322.238 65.2774 322.651 65.9515 322.914C67.6141 323.56 69.2404 323.067 70.5914 322.106C71.113 325.007 74.8583 326.32 77.1112 324.438C77.4579 325.436 78.1662 326.269 79.0962 326.77C80.1828 329.308 83.9172 330.034 85.7898 327.948L85.942 328.043C86.1787 328.991 86.7433 329.825 87.5356 330.397C88.3279 330.968 89.2968 331.241 90.2704 331.165C90.8337 331.83 91.5907 332.301 92.4352 332.513C93.2797 332.725 94.1693 332.667 94.9791 332.347C95.3766 332.979 95.9241 333.503 96.5729 333.871C96.2443 334.595 96.1542 335.404 96.3157 336.183C96.4772 336.961 96.8819 337.668 97.4712 338.201C99.7676 340.21 104.654 338.977 107.671 339.365C113.419 339.434 119.186 339.409 124.916 338.926C126.003 338.77 127.259 338.709 128.513 338.564C130.088 339.372 132.243 339.006 134.015 338.593C136.967 338.513 139.872 337.929 142.795 337.545C147.746 336.562 166.089 334.074 168.352 330.491C173.061 328.942 177.831 327.252 181.866 324.271C188.578 321.761 192.899 318.243 196.601 312.092C199.72 310.337 202.252 306.652 200.586 303.065C200.586 299.616 196.924 298.162 193.917 298.597C187.709 298.564 182.015 301.215 175.973 302.195C170.287 303.25 164.603 304.371 159.054 306.043C158 306.405 156.881 306.681 155.794 307.033C148.253 306.224 140.65 305.738 133.095 305.248C132.002 304.927 130.932 304.531 129.893 304.062C130.154 299.286 122.489 297.832 118.621 298.216C117.567 297.208 116.288 296.211 114.76 296.221C114.653 295.693 114.473 295.183 114.223 294.706C116.274 291.441 118.229 288.087 119.957 284.634C120.492 283.729 120.966 282.789 121.374 281.82C123.713 281.04 124.786 278.581 126.198 276.742C130.284 271.023 133.595 264.774 137.68 259.076C139.549 256.676 142.027 254.674 143.421 251.935C143.671 251.357 143.771 250.725 143.712 250.098C143.652 249.471 143.435 248.869 143.081 248.348C144.385 246.945 145.254 245.161 145.048 243.732C145.975 242.459 147.112 241.236 147.532 239.684C148.655 239.18 149.782 238.68 150.872 238.114C149.785 241.657 153.389 244.062 156.58 243.993C161.724 244.258 166.9 244.533 172.032 243.967C177.411 244.363 190.541 247.279 194.758 244.729C195.243 244.97 195.764 245.131 196.301 245.204C198.224 248.381 202.686 247.939 205.331 245.955C208.188 243.884 212.636 241.07 211.829 236.997C214.523 232.721 211.18 229.769 207.192 228.452Z" fill="#FFD7BB"/>
<path d="M151.98 177.895C156.689 169.822 165.183 156.019 167.773 149.676C163.669 184.706 132.211 233.091 131.914 227.806C132.906 205.77 147.261 185.972 151.98 177.895ZM131.526 140.123C133.337 133.381 139.857 98.0525 137.322 102.071C133.529 103.946 127.013 125.518 125.937 127.973C120.338 139.579 118.621 153.146 115.832 165.786C113.677 174.453 108.16 203.286 111.398 207.199C114.836 198.586 127.23 153.741 131.526 140.123ZM92.9834 195.333C93.2876 192.344 95.2037 182.331 96.102 178.374C97.1089 167.265 96.0658 135.709 96.6308 124.571C96.725 118.83 88.51 113.985 90.2849 117.176C90.3066 117.445 91.1071 124.861 91.1723 125.13C92.4219 137.283 88.999 151.656 88.6622 163.823C87.6009 181.257 91.9293 199.061 92.9834 195.333ZM124.061 272.43C124.003 272.582 123.938 272.735 123.88 272.89C123.942 272.738 124 272.582 124.061 272.43ZM208.406 243.623C204.726 243.713 188.18 246.125 152.448 237.678C146.496 238.36 142.983 244.003 139.52 248.287C133.692 255.856 123.76 276.213 125.459 277.301C130.342 271.498 145.247 248.562 147.945 245.255C154.193 244.642 169.131 251.206 176.198 251.663C193.432 252.78 210.901 243.231 208.406 243.623ZM166.958 334.465C153.918 341.131 121.319 341.262 109.996 341.385C104.563 341.893 75.0756 338.201 69.675 339.249C53.5494 336.028 35.4859 339.438 18.8567 342.897C17.4514 343.307 12.4058 346.727 10.9171 346.647C7.29495 345.987 2.94841 343.666 4.87538 339.296C4.6805 338.853 4.5582 338.382 4.51316 337.9C3.91459 338.033 3.28947 337.977 2.72384 337.74C-1.30033 336.231 -0.536074 331.379 2.97738 329.616C12.6629 323.357 24.2501 321.028 35.2613 318.156C41.2016 317.068 47.4678 315.363 53.5023 316.444C66.4658 319.244 78.2957 325.366 90.5529 330.226C100.283 333.784 110.45 336.005 120.776 336.83C121.312 336.808 121.862 336.783 122.384 336.75C129.197 336.34 136.101 336.562 142.769 334.937C150.513 333.178 158.268 331.335 165.777 328.739C167.726 327.614 169.638 326.418 171.681 325.475C175.843 323.596 180.092 321.902 184.018 319.563C187.749 317.304 191.23 314.641 194.667 311.947C197.108 309.118 198.564 305.988 198.289 302.575C196.663 297.164 205.034 300.526 204.168 309.172C201.484 319.621 179.164 331.636 166.958 334.465ZM45.693 324.84C45.722 324.793 45.7618 324.753 45.7944 324.709L45.4141 324.746C45.4394 324.789 45.4684 324.833 45.4938 324.88L45.693 324.84Z" fill="#DBB79E"/>
<path d="M10.4933 346.06C5.74467 342.818 25.851 339.724 27.7128 339.035C36.2501 337.523 44.8744 336.3 53.5494 336.028C65.5023 335.905 77.3213 338.049 89.2308 338.712C104.614 340.13 120.088 340.555 135.438 338.549C149.427 337.461 163.267 335.285 176.136 329.667C183.323 326.766 190.523 323.502 196.42 318.374C198.043 317.525 200.093 313.133 201.451 316.172C200.223 321.162 188.611 327.179 183.949 329.431C169.562 336.467 153.933 340.199 137.992 341.269C129.299 342.172 120.569 343.082 111.807 342.934C93.4904 342.785 75.3291 340.058 57.0737 339.035C45.3525 339.057 33.6132 340.692 22.2108 343.362C18.3351 344.12 14.4124 346.075 10.4933 346.06Z" fill="black"/>
<path d="M198.347 319.403C196.956 319.277 196.898 317.528 197.677 316.687C204.28 310.13 205.896 300.621 194.055 300.189C186.046 300.407 178.415 303.344 170.667 305.121C161.655 307.384 152.296 308.748 143.008 307.696C139.423 306.971 123.112 306.518 124.141 301.683C125.376 299.779 127.643 302.046 129.281 302.205C131.515 302.826 133.789 303.294 136.087 303.605C145.348 305.187 154.831 305.375 164.042 303.33C175.394 301.542 186.724 295.351 198.351 297.716C210.409 301.125 206.149 314.156 198.347 319.403Z" fill="black"/>
<path d="M122.902 301.429C118.436 300.994 115.086 299.71 113.586 295.097C113.104 291.732 116.335 287.76 117.603 284.649C123.55 273.043 132.899 263.73 140.248 253.052C142.483 250.057 144.533 246.782 147.583 244.54C149.083 243.199 150.977 244.004 152.502 244.816C159.022 246.629 165.368 247.572 171.873 248.932C178.212 250.274 184.873 250.43 191.175 248.932C199.423 247.286 209.753 243.819 212.401 234.922C211.738 228.844 192.729 223.806 187.336 221.337C177.466 217.848 167.414 214.199 156.997 212.912C153.777 212.875 150.249 212.404 147.217 213.673C144.066 216.31 140.897 218.968 138.075 221.968C136.568 223.735 135.161 225.585 133.859 227.509C133.29 228.597 132.323 230.048 131.099 228.724C129.523 226.117 139.375 216.676 141.545 214.914C143.458 213.437 145.051 211.352 147.369 210.522C153.552 209.216 160.047 209.941 166.085 211.639C175.405 213.873 184.46 216.984 193.378 220.452C200.546 223.241 208.206 225.612 213.991 230.904C217.059 234.143 214.766 238.846 212.307 241.719C207.029 248.182 198.706 250.818 190.77 252.218C184.395 253.64 177.821 253.277 171.456 251.99C164.832 250.608 158.12 249.451 151.618 247.576C149.445 246.172 148.677 247.71 147.217 249.223C145.178 251.66 143.429 254.318 141.527 256.86C137.885 261.807 134.157 266.69 130.342 271.509C125.925 276.879 122.164 282.757 119.139 289.019C118.447 290.781 116.69 292.54 116.842 294.434C117.842 296.338 119.428 297.875 121.609 298.187C122.677 298.615 124.623 298.67 124.441 300.265C124.388 300.622 124.196 300.944 123.909 301.161C123.621 301.379 123.26 301.475 122.902 301.429Z" fill="black"/>
<path d="M131.903 227.806C130.816 225.485 140.027 214.467 141.52 211.374C147.302 202.155 152.401 192.524 156.776 182.559C161.242 170.925 165.792 158.931 166.349 146.357C166.712 132.191 154.034 141.686 149.231 147.387C137.977 160.168 129.31 175.019 121.663 190.183C118.965 195.521 116.661 201.063 114.147 206.474C113.235 207.711 113.358 210.598 111.322 210.286C109.685 209.742 110.656 207.957 111.032 206.844C112.028 203.914 113.177 201.039 114.473 198.23C121.964 181.845 130.838 166.036 141.806 151.728C146.58 145.828 151.629 139.423 158.913 136.608C169.417 133.206 170.076 144.888 168.74 152.203C164.393 177.725 152.404 201.487 137.637 222.529L137.662 222.493C137.668 222.482 137.674 222.471 137.68 222.461C136.796 223.781 135.913 225.101 135.054 226.45C134.424 227.676 133.153 229.525 131.903 227.806Z" fill="black"/>
<path d="M112.445 208.258C111.105 205.981 112.467 202.971 112.746 200.512C114.618 191.608 117.635 182.994 119.849 174.174C124.854 156.599 129.563 138.949 133.975 121.224C135.532 113.76 138.173 101.882 132.888 95.5827C127.738 93.2471 118.244 109.147 115.748 113.085C107.008 127.955 102.01 144.638 99.2387 161.608C97.6486 170.566 96.0042 179.564 94.1388 188.464C93.744 190.436 93.3782 192.413 93.0522 194.401C93.0062 194.733 92.8313 195.033 92.5655 195.237C92.2997 195.44 91.9643 195.531 91.6323 195.489C89.383 194.952 91.3534 191.26 91.2375 189.657C92.2698 182.117 93.6897 174.638 95.0298 167.146C98.3151 146.451 103.835 125.743 115.314 107.99C119.356 102.234 123.355 95.3578 129.998 92.3948C139.738 90.4291 139.191 105.676 138.691 111.943C137.22 124.013 133.066 135.589 130.382 147.42C125.673 165.688 119.671 183.615 115.31 201.966C115.031 203.544 114.662 205.118 114.647 206.728C115.415 208.004 113.488 209.386 112.445 208.258Z" fill="black"/>
<path d="M8.18599 275.469C4.5856 275.397 4.65805 272.408 6.97983 272.568C7.87811 272.851 8.82348 272.785 9.75074 272.753C14.0973 272.194 18.2482 270.45 21.9428 268.129C29.6144 262.982 35.3989 255.591 41.7377 248.972C50.0685 240.322 55.614 229.522 59.3665 218.199C68.2443 193.342 69.5446 166.779 75.2241 141.178C77.209 132.837 79.4149 124.016 84.8988 117.205C91.4838 109.93 95.8412 117.793 96.6308 124.557C99.5648 144.845 97.7501 165.568 95.182 185.812C94.7885 188.714 94.5732 191.636 94.5372 194.564C94.4109 194.855 94.1842 195.092 93.8983 195.23C93.6125 195.369 93.2865 195.4 92.9797 195.318C91.8605 195.01 91.8931 193.679 91.8931 192.747C92.0561 187.698 92.8928 182.693 93.4144 177.674C94.664 167.838 98.2934 121.746 90.2631 117.162L90.3646 117.184C90.4008 117.184 90.4334 117.209 90.4443 117.184C79.8568 118.964 75.503 155.428 73.6702 165.126C71.6527 178.904 69.6388 192.765 66.0964 206.173C61.7824 222.787 55.48 239.427 43.1756 251.801C33.5082 261.8 23.493 275.738 8.18599 275.469Z" fill="black"/>
<path d="M282.398 145.538C281.177 144.993 280.2 144.015 279.656 142.792C279.004 141.457 279.084 140.043 279.504 138.705C278.406 138.811 277.302 138.571 276.346 138.019C275.679 137.625 275.109 137.086 274.677 136.443C274.244 135.8 273.961 135.069 273.846 134.302C271.268 135.753 267.837 134.509 266.707 131.796C264.896 126.94 270.453 121.779 272.923 117.956C277.056 113.637 286.147 99.4598 292.453 106.956C293.586 106.411 294.844 106.179 296.097 106.285C296.892 106.38 297.654 106.655 298.327 107.087C299 107.52 299.567 108.1 299.984 108.784C304.852 105.81 314.581 99.4127 316.457 108.766C320.575 106.753 325.708 110.17 324.426 114.877C322.64 119.396 316.142 122.711 312.589 126.12C308.967 129.105 305.439 132.209 301.864 135.252C299.69 137.388 296.912 140.159 293.685 138.313C290.722 141.548 287.69 147.714 282.398 145.538Z" fill="#25A8EB"/>
<path d="M317.446 222.678C316.633 222.462 315.875 222.074 315.224 221.54C314.573 221.007 314.044 220.34 313.672 219.585C311.321 219.947 308.717 219.247 307.311 217.231C302.367 217.985 299.125 211.791 302.881 208.327C305.055 206.536 307.869 205.788 310.365 204.523C316.816 201.6 323.173 198.415 329.138 194.593C333.177 191.715 336.982 188.521 340.515 185.04C342.391 183.397 343.909 181.003 346.408 180.325C353.808 178.642 354.996 189.573 348.545 191.35C347.89 192.01 347.241 192.671 346.575 193.309C350.494 194.527 351.24 199.79 348.238 202.405C352.012 200.776 355.409 197.998 359.633 198.201C362.657 198.564 364.888 201.727 364.03 204.693C364.823 205.537 365.308 206.625 365.405 207.78C365.502 208.935 365.207 210.089 364.566 211.055C364.444 212.024 364.039 212.936 363.403 213.676C362.767 214.416 361.926 214.953 360.987 215.218C356.797 216.096 353.464 218.696 349.371 219.802C342.402 222.316 334.93 222.548 327.61 221.978C324.205 221.913 320.872 223.686 317.446 222.678Z" fill="#25A8EB"/>
<path d="M287.908 195.017C284.55 191.753 282.706 187.328 281.533 182.86C280.807 182.754 280.113 182.495 279.495 182.1C278.877 181.706 278.349 181.185 277.947 180.572C276.965 180.755 275.951 180.651 275.027 180.271C274.875 180.206 274.727 180.137 274.582 180.057C271.018 182.596 266.403 179.535 266.077 175.523C259.362 175.523 260.416 167.207 260.774 162.572C260.379 155.388 260.014 148.018 262.162 141.055C263.813 136.59 265.059 130.773 269.623 128.419C273.879 126.497 278.555 131.487 276.107 135.56C276.179 135.651 276.248 135.745 276.313 135.84C278.508 133.334 282.815 133.693 284.611 136.485C285.183 135.993 285.847 135.62 286.564 135.386C287.28 135.153 288.036 135.064 288.788 135.125C290.762 131.832 295.952 131.727 297.865 135.125C299.6 138.027 297.941 141.465 297.245 144.46C295.648 150.114 293.895 155.732 292.537 161.448C291.178 167.164 290.363 173.202 291.642 179.049C292.254 181.627 292.877 184.22 293.909 186.665C294.855 188.235 296.427 189.486 296.304 191.503C296.449 195.764 290.802 198.125 287.908 195.017Z" fill="#125DB2"/>
<path d="M299.017 192.402C298.453 191.93 297.954 191.386 297.532 190.785C292.316 192.373 290.208 186.904 289.201 182.853C286.593 174.874 284.191 166.46 284.267 158.05C283.789 153.175 287.085 148.519 292.236 151.047C295.007 152.621 294.844 156.16 295.782 158.851C297.039 163.838 298.477 168.908 300.788 173.503C304.37 173.246 306.474 176.557 308.688 178.831C310.274 180.536 311.948 182.226 313.186 184.224C316.446 189.174 311.067 195.271 305.812 192.337C303.859 193.871 300.951 193.987 299.017 192.402Z" fill="#125DB2"/>
<path d="M304.03 191.325C298.915 187.397 297.263 180.525 295.514 174.606C287.371 171.748 291.79 146.005 292.979 139.104C293.609 133.722 301.672 133.268 302.831 138.603C306.869 139.836 306.779 144.406 305.678 147.725C304.647 153.062 304.212 158.498 304.381 163.932C304.735 168.356 305.628 172.72 307.04 176.927C307.967 179.121 308.449 181.722 310.021 183.542C315.034 187.561 309.253 195.17 304.03 191.325Z" fill="#125DB2"/>
<path d="M318.261 194.415C317 193.45 315.725 192.504 314.465 191.543C309.648 192.228 306.217 184.92 302.874 181.983L302.972 182.095C285.195 163.457 305.87 156.345 306.442 168.009C312.574 169.046 313.016 177.681 317.649 180.655C319.894 182.596 321.995 184.696 324.335 186.527C329.413 190.662 323.549 198.281 318.261 194.415Z" fill="#125DB2"/>
<path d="M303.113 197.037C297.524 196.04 297.191 187.691 303.008 186.832C303.953 186.705 304.915 186.857 305.776 187.267C307.616 187.173 309.452 186.987 311.274 186.708C311.003 185.446 311.222 184.127 311.888 183.021C312.553 181.914 313.615 181.103 314.856 180.753C316.305 180.311 317.754 180.753 319.156 181.152C321.064 181.439 322.999 181.591 324.922 181.729C328.544 181.849 332.166 181.852 335.788 181.635C337.038 181.326 338.324 181.051 339.519 181.547C343.605 182.694 344.152 188.757 340.363 190.661C337.465 192.022 334.158 191.648 331.054 191.866C322.14 194.89 312.683 198.26 303.113 197.037Z" fill="#125DB2"/>
<path d="M292.508 206.227C287.632 205.897 283.264 203.547 279.08 201.204C275.328 199.224 276.161 193.106 280.265 192.137C284.318 191.412 287.933 195.148 291.935 195.699C297.688 196.498 303.547 195.964 309.061 194.136C315.888 191.437 322.593 188.405 329.24 185.279C333.448 183.103 339.606 179.212 342.007 185.776C342.812 188.496 341.008 191.242 338.418 192.112C333.115 195.013 327.664 197.625 322.118 200.004C312.882 204.544 302.838 207.388 292.508 206.227Z" fill="#125DB2"/>
<path d="M282.521 202.329C277.929 200.624 269.25 198.731 272.166 192.011C270.072 190.172 268.138 188.079 266.997 185.551C265.871 184.451 265.005 183.113 264.462 181.635C263.1 177.366 268.214 173.54 271.992 175.832C275.712 175.106 277.787 179.128 281.16 179.959C285.234 181.312 292.178 181.105 291.885 187.038C295.275 187.209 299.853 187.038 301.125 190.959C304.769 190.897 308.503 190.176 312.107 190.959C315.678 191.833 316.968 196.733 314.28 199.25C312.107 201.426 308.847 200.457 306.112 200.82C300.317 201.357 294.424 201.622 288.726 200.156C288.132 201.211 287.174 202.013 286.033 202.413C284.891 202.813 283.643 202.783 282.521 202.329Z" fill="#125DB2"/>
<path d="M372.596 181.685C368.051 181.555 363.541 180.909 359.002 180.746C357.369 181.072 355.743 181.754 354.113 180.956C350.128 179.386 350.172 173.391 354.113 171.788C355.061 171.361 356.036 170.998 357.032 170.7C357.5 169.963 358.136 169.348 358.887 168.905C359.01 168.832 359.133 168.767 359.249 168.705C359.004 167.462 359.191 166.173 359.78 165.051C360.368 163.929 361.322 163.043 362.483 162.54C362.904 162.368 363.342 162.247 363.791 162.177C363.903 162.028 364.019 161.883 364.153 161.745C363.411 160.94 362.931 159.929 362.777 158.844C362.619 157.684 362.848 156.505 363.429 155.489C363.355 155.131 363.317 154.767 363.316 154.401C363.329 153.642 363.495 152.892 363.807 152.2C364.118 151.507 364.568 150.885 365.127 150.372C364.706 149.713 364.433 148.971 364.327 148.196C364.265 147.742 364.265 147.282 364.327 146.829C363.955 146.043 363.783 145.177 363.825 144.308C363.867 143.44 364.123 142.595 364.57 141.849C363.738 141.508 363.004 140.965 362.435 140.268C361.866 139.571 361.479 138.744 361.31 137.86C356.757 136.993 348.995 138.737 346.647 133.791C344.699 133.736 342.699 133.627 341.131 132.34C340.311 131.69 339.698 130.816 339.367 129.823C335.278 129.823 329.518 132.398 327.052 127.77C324.487 128.706 321.332 127.734 320.191 125.141C316.381 127.491 314.291 132.916 309.206 128.767C303.41 121.801 316.631 115.113 321.883 112.886C331.33 109.535 341.732 107.994 351.675 109.676C356.155 110.554 360.596 111.609 365.051 112.603C368.851 113.205 373.567 114.416 372.94 119.294C374.015 120.054 374.85 121.106 375.345 122.326C378.605 123.215 381.619 126.24 380.728 129.834C380.821 130.117 380.893 130.407 380.945 130.701C381.812 131.441 382.435 132.427 382.731 133.529C382.848 133.952 382.915 134.386 382.93 134.824C386.052 136.006 387.932 139.775 386.288 142.847C386.288 142.894 386.31 142.944 386.317 142.992L386.636 143.278C388.327 144.819 388.592 147.518 387.552 149.498C388.226 150.334 388.663 151.336 388.816 152.399C388.917 153.139 388.861 153.891 388.653 154.608C389.169 155.339 389.502 156.184 389.624 157.071C389.772 158.146 389.598 159.242 389.124 160.219C389.315 160.916 389.367 161.644 389.276 162.362C392.235 167.312 387.342 171.505 382.394 171.102C382.336 171.208 382.275 171.309 382.209 171.411C384.444 174.236 382.698 177.62 380.576 179.883C378.558 182.117 375.324 181.83 372.596 181.685Z" fill="#125DB2"/>
<path d="M372.22 119.349C365.721 116.056 358.669 113.223 351.342 112.755C343.873 112.175 336.408 112.89 329.011 113.909C324.795 114.543 318.123 115.751 317.033 110.09C316.595 110.09 316.16 110.05 315.722 110.017C315.142 109.967 314.576 109.814 314.048 109.567C308.698 111.018 303.566 113.125 298.452 115.247C295.525 116.803 291.167 116.839 289.661 113.354C286.401 112.353 285.097 108.048 287.237 105.4C288.871 103.387 291.533 102.553 293.808 101.483C301.259 97.0573 309.427 93.9726 317.942 92.3695C327.78 90.4582 337.864 90.9441 347.799 91.8363C352.32 92.685 358.488 91.4736 361.451 95.7351C365.164 97.3308 372.317 99.8152 373.828 103.714C376.852 106.521 380.489 109.052 382.582 112.657C384.325 116.527 380.456 120.999 376.389 119.795C375.7 120.009 374.975 120.08 374.258 120.003C373.541 119.926 372.847 119.704 372.22 119.349Z" fill="#89D7FA"/>
<path d="M350.487 213.253C349.975 212.003 349.972 210.602 350.479 209.351C350.987 208.099 351.963 207.097 353.2 206.558C353.924 206.246 354.649 205.926 355.373 205.607C355.179 205.17 355.047 204.707 354.982 204.233C354.88 203.459 354.954 202.672 355.196 201.93C355.439 201.188 355.845 200.51 356.384 199.946C356.351 199.892 356.322 199.837 356.293 199.783C353.352 201.447 348.995 201.777 347.144 198.39C341.54 200.247 337.364 192.834 342.022 189.117C341.026 185.852 343.503 183.158 346.459 182.189C348.27 181.051 349.835 179.955 351.501 178.679C352.57 174.523 358.26 171.886 361.447 175.386C363.999 174.093 366.485 172.674 368.894 171.132C371.162 169.34 374.632 169.652 376.439 171.933C380.286 169.833 384.477 164.241 388.936 168.488C392.301 167.447 396.035 170.203 395.883 173.772C396.614 174.767 396.982 175.982 396.925 177.216C396.869 178.45 396.391 179.627 395.571 180.55C395.144 181.098 394.749 181.674 394.358 182.255C396.466 186.03 393.123 189.816 391.033 192.812C389.385 201.476 377.522 206.811 370.256 210.26C367.286 212.201 364.189 213.942 360.701 214.435C357.155 216.292 352.66 217.877 350.487 213.253Z" fill="#89D7FA"/>
<path d="M381.275 138.679C375.581 134.556 381.891 126.374 387.32 130.842C392.369 134.922 386.502 142.516 381.275 138.679Z" fill="#89D7FA"/>
<path d="M392.996 181.054C392.537 180.996 392.088 180.874 391.663 180.691C388.432 182.142 384.52 179.469 384.582 175.93C384.582 172.952 385.737 170.011 385.281 167.062C384.1 165.441 384.321 163.341 384.531 161.448C384.752 157.096 384.441 152.726 384.307 148.366C381.195 146.607 381.431 142.535 380.645 139.466C380.018 136.312 379.182 133.203 378.142 130.16C375.4 126.131 369.633 120.078 375.001 115.776C375.45 112.059 380.174 110.046 383.111 112.414C383.65 112.819 384.101 113.329 384.439 113.912C384.777 114.495 384.994 115.14 385.078 115.809C386.838 119.824 388.889 123.73 390.171 127.941C394.858 129.551 396.52 137.189 397.705 141.523C399.878 146.361 399.624 151.902 399.052 157.056C401.819 160.944 400.555 166.101 400.063 170.5C401.193 173.373 399.606 174.907 398.683 177.311C398.107 179.788 395.474 181.402 392.996 181.054Z" fill="#89D7FA"/>
<path d="M310.27 222.696C304.776 220.919 286.593 218.544 286.47 211.74C284.202 211.461 281.547 211.142 280.276 208.991C279.66 208.588 279.138 208.059 278.743 207.438C278.348 206.817 278.09 206.118 277.987 205.39C277.378 201.241 281.725 198.767 285.365 199.895C291.475 200.621 297.582 201.469 303.714 202.02C305.359 201.952 307.054 201.774 308.532 202.666C312.154 204.588 311.654 210.369 307.844 211.733C309.532 212.204 311.223 212.647 312.915 213.049C319.203 214.881 316.635 224.329 310.27 222.696Z" fill="#89D7FA"/>
<path d="M330.453 225.326C308.557 224.735 285.43 215.784 272.394 197.505C255.899 172.72 253.114 136.275 274.669 113.589C293.058 93.1201 322.68 84.9672 349.226 91.1834C358.376 93.1745 367.967 95.0024 375.921 100.214C377.555 101.473 380.905 103.362 379.688 105.756C379.556 105.935 379.381 106.078 379.179 106.173C378.977 106.267 378.755 106.31 378.533 106.298C378.311 106.285 378.095 106.217 377.905 106.101C377.716 105.984 377.558 105.822 377.446 105.629C371.021 98.0996 359.39 96.7432 350.157 94.4112C315.276 85.4786 271.42 104.269 264.009 141.827C260.434 157.665 264.244 174.334 271.278 188.685C280.334 207.718 301.132 218.268 321.264 221.039C342.062 224.045 363.834 216.897 380.232 204.088C395.14 190.331 402.059 168.038 397.98 148.199C395.716 131.912 384.89 119.12 372.944 108.588C372.064 107.591 369.775 106.677 370.869 105.07C372.614 101.98 384.879 117.038 387.027 118.703C394.782 125.536 398.98 135.063 401.044 145.037C405.692 163.084 401.139 182.817 390.627 197.987C379.094 215.026 350.505 225.721 330.453 225.326Z" fill="black"/>
<path d="M335.502 182.059C363.056 180.971 377.758 142.23 345.521 133.965C339.896 132.082 334.017 131.107 328.135 130.461C326.306 130.298 324.458 129.845 322.731 130.682C313.063 133.946 304.729 142.335 303.87 152.827C302.78 169.771 319.137 183.462 335.502 182.059ZM329.743 185.417C299.625 182.008 288.451 142.77 318.21 129.246C317.055 126.261 321.47 127.433 323.093 127.389C327.555 126.105 340.182 124.459 341.83 130.091C350.451 132.293 360.437 135.23 364.733 143.793C374.585 166.007 352.399 188.721 329.732 185.432L329.743 185.417Z" fill="black"/>
<path d="M288.654 231.575C280.743 223.233 272.452 215.077 266.131 205.411C257.801 191.394 252.458 175.288 251.313 158.989C250.466 136.083 255.685 112.364 267.251 92.4927C276.212 77.5433 286.285 62.6882 300.096 51.8116C319.507 37.573 344.894 30.5262 368.815 33.9209C408.404 39.6439 443.644 66.217 461.512 101.857C465.275 108.799 468.495 116.092 470.328 123.799C471.121 126.232 473.69 141.726 468.691 138.708C469.915 126.472 465.007 114.184 459.161 103.42C441.819 68.6796 407.582 42.625 369.032 36.9129C343.967 33.268 316.997 41.294 297.792 57.7884C282.147 72.915 269.867 91.1786 261.756 111.384C252.987 137.29 250.911 165.354 262.259 190.81C265.711 199.855 270.909 207.776 277.302 214.95C281.623 219.94 285.883 224.996 290.487 229.732C291.707 230.846 289.795 232.822 288.654 231.575Z" fill="black"/>
<path d="M261.024 204.922C249.223 197.266 247.409 181.885 243.298 169.489C237.698 151.717 237.346 132.971 239.129 114.565C240.396 92.8808 247.235 74.1197 258.865 55.899C260.216 53.7773 268.189 39.6657 269.395 45.8602C265.411 50.1179 262.31 55.2643 259.365 60.3671C248.321 77.877 242.704 97.0407 241.66 117.67C239.558 137.756 241.883 158.059 248.47 177.148C250.643 183.887 252.632 190.85 256.301 196.957C258.021 199.275 260.139 201.267 262.556 202.84C263.868 203.754 262.354 205.923 261.024 204.922Z" fill="black"/>
<path d="M353.446 236.747C340.656 236.475 327.599 233.921 316.338 227.68C310.68 224.971 316.917 220.466 316.798 224.753C342.659 239.191 376.783 236.446 401.305 220.361C422.418 206.358 435.353 180.742 436.001 155.609C436.364 137.193 429.945 122.406 416.609 109.825C409.821 102.759 402.005 96.7604 393.427 92.0323C386.52 88.7682 378.674 87.6186 371.086 87.6802C370.75 87.6783 370.429 87.544 370.191 87.3063C369.954 87.0687 369.82 86.7469 369.818 86.4108C369.869 83.7561 378.623 85.4606 380.518 85.3917C393.659 86.6393 404.424 95.0099 414.167 103.286C426.015 114.232 436.874 127.665 438.167 144.359C441.514 166.529 433.567 189.142 420.234 206.739C404.576 226.777 378.551 237.269 353.446 236.747Z" fill="black"/>
<path d="M359.745 256.309C347.495 255.363 335.386 252.204 323.633 248.715C315.193 245.603 307.695 241.157 300.089 236.554C298.738 235.727 299.922 233.544 301.36 234.378C311.622 240.544 322.463 246.205 334.231 248.765C343.051 250.659 351.842 253.368 360.915 253.535C370.89 253.451 380.333 249.378 389.24 245.233C408.846 235.727 424.063 218.79 434.1 199.678C440.055 188.018 444.705 175.531 445.93 162.456C446.654 160.052 445.959 155.877 448.045 154.387C448.256 154.331 448.479 154.328 448.691 154.381C448.904 154.433 449.1 154.538 449.261 154.686C449.422 154.835 449.544 155.021 449.614 155.228C449.685 155.436 449.702 155.658 449.664 155.874C448.672 160.588 448.346 165.427 447.491 170.17C441.304 200.192 422.86 228.866 396.231 244.519C385.093 250.713 372.727 256.418 359.745 256.309Z" fill="black"/>
<path d="M398.962 119.32C396.749 118.025 395.477 115.287 393.811 113.339C392.522 111.268 390.602 109.375 389.914 107.018C389.856 105.643 391.917 105.233 392.413 106.43C393.728 108.722 395.343 110.83 396.854 112.991C397.556 114.663 402.906 118.667 398.962 119.32Z" fill="black"/>
<path d="M393.514 118.565C391.511 117.205 396.049 112.128 396.56 110.173C397.719 108.722 399.921 101.066 402.193 104.642C401.704 107.181 399.599 109.459 398.57 111.936C397.248 113.444 395.872 119.61 393.514 118.565Z" fill="black"/>
<path d="M395.919 115.653C393.112 115.428 390.055 115.929 387.432 114.75C385.437 113.626 387.769 110.859 389.207 112.574C394.195 113.18 399.266 113.147 404.286 113.136C404.626 113.14 404.951 113.277 405.191 113.517C405.432 113.758 405.568 114.083 405.572 114.424C405.442 116.981 397.926 115.287 395.919 115.653Z" fill="black"/>
<path d="M415.497 141.414C412.784 139.456 409.082 132.231 412.012 129.551C413.36 128.782 414.848 130.726 413.599 131.727C413.867 134.458 414.649 137.367 416.808 139.216C418.391 140.098 416.971 142.502 415.497 141.414Z" fill="black"/>
<path d="M406.586 138.585C406.13 136.046 416.728 131.839 418.992 130.157C419.293 129.988 419.648 129.943 419.982 130.031C420.315 130.119 420.602 130.333 420.781 130.628C421.814 132.953 416.246 134.113 414.841 135.466C412.983 135.977 407.372 141.548 406.586 138.585Z" fill="black"/>
<path d="M417 169.032C414.62 165.601 409.933 161.016 409.922 156.784C410.024 156.558 410.186 156.364 410.391 156.223C410.595 156.082 410.833 156 411.081 155.985C411.328 155.97 411.575 156.023 411.795 156.138C412.015 156.254 412.199 156.427 412.327 156.639C413.57 160.73 416.482 164.128 418.992 167.49C419.984 168.749 417.985 170.33 417 169.032Z" fill="black"/>
<path d="M409.879 175.277C407.68 173.939 413.287 168.386 413.986 166.518C415.479 165.068 422.987 149.835 424.385 156.048C419.916 161.851 415.884 168.292 411.82 174.504C411.476 175.23 410.628 175.727 409.879 175.277Z" fill="black"/>
<path d="M418.688 168.023C414.562 167.769 410.208 168.205 406.26 166.859C406.112 166.758 405.986 166.627 405.89 166.475C405.794 166.324 405.729 166.154 405.701 165.977C405.672 165.799 405.679 165.618 405.723 165.444C405.766 165.269 405.844 165.106 405.952 164.962C406.814 163.932 408.223 164.828 409.325 164.864C412.773 165.282 416.134 165.253 419.575 165.405C421.509 165.934 428.399 164.317 428.388 166.758C428.29 169.311 420.683 167.661 418.688 168.023Z" fill="black"/>
<path d="M406.612 194.81C406.097 192.685 405.492 190.509 405.409 188.333C405.409 188.142 405.449 187.954 405.528 187.78C405.607 187.606 405.722 187.451 405.865 187.325C406.008 187.2 406.177 187.106 406.36 187.051C406.542 186.996 406.734 186.98 406.923 187.006C408.875 187.539 407.818 190.335 408.499 191.837C408.615 193.081 409.879 195.101 408.155 195.699C407.832 195.78 407.492 195.732 407.204 195.567C406.916 195.401 406.704 195.13 406.612 194.81Z" fill="black"/>
<path d="M401.74 195.427C400.584 192.616 404.92 191.485 406.601 190.088C406.898 189.919 407.249 189.873 407.579 189.96C407.909 190.047 408.193 190.26 408.368 190.553C409.143 192.867 405.304 193.378 404.134 194.847C404.12 196.08 402.316 196.522 401.74 195.427Z" fill="black"/>
<path d="M447.599 224.894C444.702 223.85 442.934 221.293 441.232 218.878C440.732 218.065 440.011 217.358 439.623 216.495C439.297 215.407 440.591 214.373 441.569 214.997C443.51 217.013 444.593 219.871 446.839 221.623C447.748 222.37 449.838 222.628 449.247 224.223C449.116 224.529 448.869 224.771 448.561 224.897C448.252 225.022 447.907 225.021 447.599 224.894Z" fill="black"/>
<path d="M439.145 234.338C438.86 234.167 438.652 233.89 438.568 233.567C438.483 233.245 438.528 232.902 438.693 232.612C441.435 227.879 444.046 223.066 446.643 218.25C447.904 216.491 448.404 213.648 450.428 212.683C450.676 212.654 450.928 212.697 451.151 212.809C451.374 212.921 451.56 213.096 451.685 213.313C451.811 213.529 451.87 213.777 451.856 214.027C451.841 214.277 451.754 214.517 451.605 214.718C448.838 219.4 446.353 224.249 443.637 228.971C442.355 230.403 441.5 235.165 439.145 234.338Z" fill="black"/>
<path d="M430.619 226.051C430.065 222.823 444.973 221.293 448.005 219.991C450.356 219.9 462.972 215.033 463.001 217.59C463.089 217.921 463.044 218.273 462.875 218.571C462.706 218.869 462.428 219.088 462.099 219.182C452.46 221.616 442.789 223.973 433.176 226.468C432.774 227.865 430.554 227.502 430.619 226.051Z" fill="black"/>
<path d="M456.521 193.773C454.145 193.744 456.843 185.867 456.626 183.981C457.408 178.697 457.665 173.289 459.038 168.118C459.661 164.658 464.334 166.272 461.704 168.52C459.741 172.013 459.625 194.47 456.521 193.773Z" fill="black"/>
<path d="M451.772 183.564C451.772 183.294 451.852 183.03 452.002 182.806C452.151 182.582 452.364 182.407 452.613 182.304C452.862 182.201 453.136 182.174 453.4 182.226C453.664 182.279 453.907 182.409 454.097 182.6C454.287 182.79 454.417 183.033 454.47 183.298C454.522 183.562 454.495 183.837 454.392 184.086C454.289 184.335 454.115 184.548 453.891 184.698C453.667 184.848 453.403 184.928 453.134 184.928C452.774 184.925 452.429 184.78 452.174 184.525C451.919 184.27 451.775 183.925 451.772 183.564Z" fill="black"/>
<path d="M452.982 181.892C449.204 182.374 449.106 178.022 452.399 179.186C457.245 179.361 462.084 178.563 466.909 178.193C468.532 177.964 468.887 180.503 467.271 180.706C462.504 181.116 457.759 181.943 452.982 181.892Z" fill="black"/>
<path d="M460.766 193.81C457.995 188.456 455.144 183.136 452.395 177.772C451.768 176.122 448.639 172.122 451.964 171.777C453.442 172.02 453.728 175.346 454.728 176.543C457.464 181.879 460.207 187.206 462.957 192.526C463.808 193.933 461.552 195.253 460.766 193.81Z" fill="black"/>
<path d="M450.79 191.202C449.157 186.81 457.39 179.39 459.933 175.846C461.682 174.454 466.652 166.417 468.673 168.23C468.911 168.472 469.044 168.797 469.044 169.137C469.044 169.476 468.911 169.802 468.673 170.043C463.084 176.209 456.825 182.222 453.098 189.744C453.098 190.992 451.935 192.235 450.79 191.202Z" fill="black"/>
<path d="M459.596 152.729C457.024 152.82 457.64 148.334 460.034 149.828C461.559 148.939 461.845 145.392 464.019 146.237C466.058 147.601 461.505 152.998 459.596 152.729Z" fill="black"/>
<path d="M422.216 243.699C425.244 242.81 426.059 239.648 421.937 239.731C421.827 239.96 421.651 240.152 421.433 240.281C421.214 240.41 420.962 240.471 420.709 240.457C419.608 241.672 420.535 243.822 422.216 243.699ZM418.8 244.968C416.525 242.945 417.601 237.247 421.151 237.907C422.27 236.493 424.994 237.544 426.247 238.386C430.3 242.622 422.665 249.407 418.811 244.968H418.8Z" fill="black"/>
<path d="M391.232 262.511C388.758 261.115 391.667 256.088 393.25 259.247C397.136 259.435 394.137 264.821 391.232 262.511Z" fill="black"/>
<path d="M364.218 273.765C361.969 272.836 353.406 267.806 355.033 265.06C356.597 263.225 359.741 268.89 361.915 269.616C362.961 270.315 364.067 270.921 365.218 271.429C366.725 272.053 365.721 274.421 364.218 273.765Z" fill="black"/>
<path d="M357.561 277.308C355.808 275.567 360.553 271.734 361.353 269.884C362.849 268.477 364.907 263.232 367.308 264.716C367.546 264.957 367.679 265.283 367.679 265.622C367.679 265.962 367.546 266.288 367.308 266.529C365.084 267.94 359.368 279.393 357.561 277.308Z" fill="black"/>
<path d="M385.364 217.67C383.582 216.836 383.665 214.475 385.056 213.318C386.324 212.081 388.103 214.112 386.791 215.273C388.175 215.334 390.051 214.783 390.725 213.495C389.566 211.008 393.337 210.594 393.456 213.133C393.586 216.741 388.356 219.005 385.364 217.67Z" fill="black"/>
<path d="M488.116 93.0295C484.534 89.3374 481.234 85.3589 477.409 81.9099C477.111 81.9844 476.795 81.9498 476.52 81.8122C476.244 81.6746 476.027 81.443 475.906 81.1591C475.809 80.9502 475.761 80.7214 475.766 80.4908C475.772 80.2602 475.83 80.034 475.938 79.8299C476.045 79.6258 476.198 79.4494 476.385 79.3144C476.572 79.1794 476.787 79.0896 477.015 79.052C479.76 79.0883 481.361 82.1093 483.216 83.7668C485.469 86.2293 487.627 88.7826 489.906 91.227C491.065 92.3875 489.261 94.2081 488.116 93.0295Z" fill="black"/>
<path d="M476.326 102.085C473.968 100.997 478.742 94.6652 479.224 92.7321C481.227 88.7427 483.114 84.6155 485.744 80.967C487.711 77.5506 491.659 81.2136 488.182 82.3016C485.201 86.3962 483.071 91.2379 480.695 95.6516C479.42 97.1567 478.619 102.775 476.326 102.085Z" fill="black"/>
<path d="M473.599 88.6738L473.653 88.7318L473.791 88.8225C469.202 84.1549 488.247 85.1957 490.543 84.3725C492.651 84.6481 502.04 81.9752 501.985 84.4124C502.348 86.9765 494.042 86.2548 492.108 86.9003C486.566 87.6257 480.898 87.8795 475.377 88.6411C475.141 88.8734 474.826 89.0062 474.495 89.0123C474.164 89.0183 473.843 88.8972 473.599 88.6738Z" fill="black"/>
<path d="M469.741 50.9738C472.277 50.0127 469.499 49.3817 468.235 49.6501C468.409 50.0878 468.69 50.4745 469.053 50.7744L469.129 50.8143C469.151 50.8143 469.176 50.8433 469.187 50.8396L469.133 50.8143L469.053 50.7599C469.255 50.9017 469.495 50.9765 469.741 50.9738ZM468.151 53.3747C466.826 52.8235 465.978 51.507 465.551 50.1941C465.518 50.0853 465.485 49.9728 465.46 49.8604C464.243 49.534 464.189 47.6844 465.417 47.3217C465.417 45.1674 469.039 44.3115 468.76 46.9264C475.649 46.143 474.182 55.3513 468.151 53.3747Z" fill="black"/>
<path d="M452.754 33.0216H452.681H452.583C456.568 32.3507 453.67 27.7592 450.696 29.8337C450.461 31.0196 450.95 32.4703 452.145 32.9309L452.04 32.8947C452.019 32.8816 451.996 32.8741 451.971 32.8729C452.227 32.9757 452.5 33.031 452.775 33.0361L452.754 33.0216ZM452.138 35.7924C449.849 35.524 448.132 33.3516 447.936 31.1212C446.227 30.6026 447.013 28.6985 448.299 28.1727C448.606 25.7427 456.224 18.9934 456.34 24.1832C455.496 25.322 453.666 25.2713 452.765 26.537C459.205 26.7872 458.426 36.3727 452.134 35.7924H452.138Z" fill="black"/>
<path d="M488.768 34.2944C486.628 33.87 484.509 33.0758 482.89 31.5671C481.582 30.0837 474.849 23.998 479.318 23.2473C481.854 25.097 483.103 28.7455 485.936 30.5334C487.12 31.7593 490.185 31.1282 490.188 33.2136C490.142 33.5451 489.967 33.8449 489.701 34.0475C489.435 34.25 489.1 34.3388 488.768 34.2944Z" fill="black"/>
<path d="M477.58 36.5067C474.682 34.2762 479.358 32.3976 481.256 31.9189C483.813 28.5569 485.458 24.5058 488.178 21.2961C489.533 20.1102 491.438 22.1375 490.029 23.3271C488.432 25.6482 487.099 28.1471 485.527 30.4899C488.801 29.4092 492.069 28.3066 495.332 27.1823C496.567 26.8197 498.555 25.5431 499.178 27.3746C499.624 29.7682 493.854 30.0874 492.22 31.1101C488.939 32.2489 485.672 33.4348 482.394 34.5881C481.137 35.687 479.322 37.0181 477.58 36.5067Z" fill="black"/>
<path d="M447.465 6.31784C445.604 4.80549 446.697 -1.16413 449.461 1.41811C450.044 2.37194 448.838 3.30039 449.389 4.28686C449.378 4.26198 449.366 4.23775 449.352 4.21432C449.342 4.18458 449.327 4.1565 449.309 4.13092C449.333 4.24102 449.383 4.34372 449.455 4.43029C449.527 4.51687 449.619 4.58476 449.723 4.6282C449.827 4.67164 449.939 4.68933 450.051 4.67979C450.163 4.67024 450.272 4.63374 450.367 4.57338L450.196 4.63503C452.634 3.24236 449.023 2.57141 450.327 0.863219C451.729 -0.678146 453.685 1.62846 453.775 3.11905C454.203 6.35048 449.74 9.04878 447.465 6.31784Z" fill="black"/>
<path d="M325.907 17.0022C325.907 13.1723 323.466 2.75633 325.741 0.195849C327.28 -0.714463 328.714 1.82788 327.501 2.85425C327.544 7.47471 327.925 12.0734 328.425 16.6576C328.656 18.286 326.114 18.6415 325.907 17.0022Z" fill="black"/>
<path d="M317.718 13.3284C316.041 13.2595 314.628 11.1523 316.526 10.2021C318.489 9.71252 320.586 9.83946 322.582 9.47678C329.301 8.38876 336.024 7.17018 342.623 5.46924C344.195 5.01952 344.898 7.50384 343.297 7.92817C335.375 9.82133 327.385 11.6782 319.286 12.5994C319.152 12.9172 318.897 13.169 318.579 13.3C318.26 13.4311 317.902 13.4309 317.584 13.2994L317.718 13.3284Z" fill="black"/>
<path d="M334.647 19.7294C332.514 17.5534 317.037 2.26668 320.782 0.330002C322.705 -0.776154 325.788 7.01772 327.794 8.45028C330.551 11.7143 333.329 14.9784 336.466 17.9088C337.65 19.0621 335.825 20.9154 334.647 19.7294Z" fill="black"/>
<path d="M223.274 85.8813C223.843 82.1203 222.804 72.3644 226.172 70.4277C227.701 69.949 228.755 72.2411 227.259 72.9302C226.111 77.1154 226.042 81.6126 225.81 85.8813C225.828 87.5278 223.256 87.5351 223.274 85.8813Z" fill="black"/>
<path d="M218.624 84.0932C215.505 81.1918 221.21 81.2607 222.97 80.9597C226.498 80.3395 229.802 79.6504 233.228 78.7583C234.829 78.3049 235.532 80.8219 233.916 81.2535C229.349 82.3415 224.763 83.5818 220.076 84.0062C219.869 84.1605 219.621 84.2509 219.363 84.2663C219.105 84.2818 218.848 84.2216 218.624 84.0932Z" fill="black"/>
<path d="M226.839 86.1495C224.176 83.5419 221.119 81.2353 218.754 78.3665C218.149 77.0899 219.866 75.8931 220.844 76.9158C223.318 79.5234 226.02 81.9062 228.639 84.3615C229.798 85.4931 227.987 87.3209 226.839 86.1495Z" fill="black"/>
<path d="M219.044 120.796C216.657 119.791 218.58 114.735 220.978 115.776C224.368 116.273 221.652 121.717 219.044 120.796Z" fill="black"/>
<path d="M218.982 142.466C218.473 142.236 218.028 141.884 217.687 141.441C217.346 140.998 217.119 140.478 217.026 139.927C217.005 139.782 216.993 139.635 216.99 139.488C215.451 138.926 216.153 136.656 217.736 136.899C218.823 134.182 222.499 134.868 220.851 137.348C224.803 138.542 222.695 143.989 218.982 142.466Z" fill="black"/>
<path d="M211.264 163.269C211.752 163.214 212.223 163.056 212.646 162.806C213.069 162.556 213.435 162.219 213.719 161.818C213.759 161.738 213.795 161.655 213.828 161.571C213.861 161.488 213.864 161.452 213.872 161.459C213.777 159.123 210.365 160.501 209.043 159.682C208.779 161.132 209.547 163.247 211.264 163.269ZM209.391 165.688C204.251 163.345 205.961 154.158 210.89 152.733C211.071 152.717 211.253 152.738 211.425 152.795C211.597 152.852 211.756 152.944 211.892 153.064C212.027 153.185 212.137 153.332 212.214 153.496C212.291 153.661 212.334 153.839 212.339 154.02C212.165 155.409 210.166 155.518 209.768 157.328C219.732 155.544 217.943 167.936 209.391 165.688Z" fill="black"/>
<path d="M231.725 179.07C230.247 177.417 219.471 167.715 225.296 167.204C225.609 167.306 225.885 167.498 226.091 167.756C226.297 168.014 226.423 168.326 226.455 168.654C227.965 171.023 229.812 173.173 231.642 175.302C232.246 175.973 232.87 176.63 233.521 177.257C234.688 178.421 232.888 180.238 231.725 179.07Z" fill="black"/>
<path d="M226.035 182.255C223.916 180.488 228.284 176.43 229.045 174.598C230.417 173.3 232.221 167.962 234.398 169.238C236.144 170.663 231.261 175.201 230.674 177.119C229.447 178.486 228.335 183.256 226.035 182.255Z" fill="black"/>
<path d="M221.703 179.201C220.399 179.255 219.891 177.333 221.04 176.727C223.756 175.665 226.625 175.012 229.407 174.134C232.087 173.346 234.765 172.555 237.441 171.762C239.339 171.639 243.845 168.633 244.797 170.943C244.883 171.273 244.837 171.624 244.669 171.921C244.5 172.217 244.223 172.436 243.895 172.531C236.477 174.667 229.146 177.192 221.703 179.204V179.201Z" fill="black"/>
<path d="M315.805 69.1838C314.396 67.0984 309.191 60.7262 310.691 58.4559C313.183 56.7477 313.672 61.9013 314.972 63.2178C315.782 64.7726 316.733 66.25 317.812 67.6315C318.84 68.919 316.808 70.4894 315.805 69.1838Z" fill="black"/>
<path d="M311.129 72.6109C309.05 70.997 313.592 67.0221 314.327 65.187C315.483 63.6311 319.297 57.161 320.807 61.281C320.802 61.5507 320.716 61.8127 320.561 62.0336C320.406 62.2545 320.189 62.4242 319.938 62.5213C317.978 64.2767 316.493 66.9061 314.968 68.9515C313.791 70.1012 313.219 73.4451 311.129 72.6109Z" fill="black"/>
<path d="M307.905 68.7412C304.595 65.6185 312.364 63.9067 314.382 63.0254C316.424 62.7752 322.81 59.123 323.701 61.6219C323.792 61.9627 323.745 62.3255 323.571 62.6321C323.397 62.9387 323.109 63.1646 322.77 63.2612C318.373 64.5196 313.929 65.8652 309.839 67.9396C309.785 68.1342 309.688 68.3138 309.554 68.465C309.42 68.6161 309.254 68.7348 309.067 68.8121C308.881 68.8893 308.679 68.9231 308.478 68.9108C308.277 68.8985 308.081 68.8405 307.905 68.7412Z" fill="black"/>
<path d="M276.639 34.1203C274.567 33.2317 275.574 29.4345 277.867 30.2251C278.512 28.4372 280.866 29.5179 281 31.0629C281.373 33.2861 278.584 35.0922 276.639 34.1203Z" fill="black"/>
<path d="M392.79 6.04577C391.92 5.14997 392.717 3.63399 393.934 3.74279C394.883 1.65016 397.607 3.8117 396.238 5.44373C395.521 6.38306 393.713 6.90894 392.79 6.04577Z" fill="black"/>
<path d="M378.326 62.9276C375.508 62.797 375.918 57.1248 378.689 57.5709C378.91 57.6368 379.109 57.7607 379.266 57.9299C379.423 58.0991 379.531 58.3073 379.581 58.5329C379.63 58.7584 379.618 58.993 379.545 59.2123C379.473 59.4316 379.344 59.6275 379.17 59.7796C379.145 59.8666 379.123 59.9537 379.102 60.0407C380.601 60.6464 379.909 63.0618 378.326 62.9276Z" fill="black"/>
</g>
<defs>
<clipPath id="clip0_107_27012">
<rect width="502" height="355" fill="white"/>
</clipPath>
</defs>
</svg>
