<svg width="164" height="153" viewBox="0 0 164 153" fill="none" xmlns="http://www.w3.org/2000/svg">
<g clip-path="url(#clip0_1830_1606)">
<path d="M36 24.5L27 30.5L22.5 34L16 40.5L9 49.5L4 59.5L2.5 69.5L6.5 83.5L16 94.5L34.5 103L63 108.5H95L123.5 102L142 92.5L153.5 81.5L160.5 68.5L162.5 59.5V52L160.5 42.5L155.5 33L143.5 22.5L129 16.5L111.5 13L98 12L84.5 13L66.5 15.5L46.5 20.5L36 24.5Z" fill="white"/>
<path d="M40.0169 51.186C39.2015 51.2254 37.5694 51.6764 36.639 51.9261C36.5046 51.2902 36.4828 50.6836 36.4369 50.215C36.2349 48.5038 36.2324 48.7435 37.6863 48.33C38.4642 48.1126 39.2782 47.9406 39.9877 47.525C40.5753 47.1618 40.8587 46.4907 40.719 45.8293C40.5377 45.0969 39.8799 44.6247 39.1408 44.648C38.9265 44.6401 38.7176 44.6576 38.494 44.7314C37.2837 45.0402 36.0734 45.349 34.8538 45.7395C33.3597 46.2146 32.8835 46.9795 32.9516 48.5595C32.9544 48.8247 33.0135 49.1045 33.0472 49.3897C33.5788 53.29 34.1103 57.1904 34.6419 61.0907C34.7024 61.5031 34.7684 61.941 34.8851 62.368C35.0625 63.2075 35.5877 63.6812 36.4408 63.8199C37.0434 63.9052 37.6299 63.9142 38.2512 63.8361C41.545 63.3263 44.4741 60.2097 44.6419 56.8525C44.8548 52.9543 42.8048 51.0489 40.0169 51.186ZM41.3231 55.9857C41.3822 56.2655 41.385 56.5307 41.3625 56.8012C41.0543 58.4873 40.1392 59.6904 38.5501 60.3449C38.1847 60.5018 37.8873 60.3521 37.8067 59.9705C37.7232 59.3238 37.6398 58.6771 37.5119 57.6943C37.4729 57.3836 37.364 56.7423 37.2551 56.1009C37.173 55.5868 37.3991 55.2733 37.8302 55.0494C38.3977 54.7169 38.9814 54.4608 39.6549 54.5045C40.6298 54.5909 41.1805 55.0592 41.3231 55.9857Z" fill="black"/>
<path d="M58.6234 48.5578C58.2931 47.2457 57.5866 46.0397 56.6124 45.0762C56.5454 45.0106 55.4842 44.0124 54.1489 43.6036C51.13 42.6468 48.1228 45.1422 47.9153 45.2923C47.2783 45.7989 46.7551 46.4675 46.4061 47.2055C46.2216 47.59 46.0933 47.9891 45.9959 48.4083C45.602 50.1922 45.7518 51.7816 46.3357 53.917C46.474 54.4458 46.5868 54.98 46.7505 55.5035C47.1826 56.7941 47.9855 57.9532 48.9944 58.8296C50.688 60.3054 52.9524 60.332 54.473 59.4793C55.4407 58.9029 56.2852 58.2462 56.9234 57.3673C58.8579 54.6999 59.4585 51.7562 58.6234 48.5578ZM54.0564 55.3687C52.7332 57.03 51.3499 56.897 50.3711 55.031C49.6015 53.6523 49.5442 52.1231 49.5432 50.6087C49.5336 50.1855 49.6256 49.7409 49.6669 49.307C49.7668 48.6481 50.0972 48.0734 50.5562 47.6044C51.529 46.5486 52.9818 46.5074 54.0578 47.4494C54.7532 48.0997 55.1394 48.9217 55.3382 49.8629C55.7373 51.8779 55.3341 53.7435 54.0564 55.3687Z" fill="black"/>
<path d="M74.7699 53.2521C74.6237 52.9375 74.412 52.6899 74.2457 52.4061C73.2243 50.8414 72.2083 49.3022 71.2377 47.7268C70.1679 45.9332 69.1691 44.098 68.1247 42.299C67.8754 41.8733 67.6514 41.4423 67.3311 41.0582C66.2925 39.7895 64.7648 39.9793 64.0521 41.5117C63.8528 41.9524 63.6844 42.4131 63.6031 42.9086C63.2813 44.2787 62.9649 45.6742 62.7047 47.0844C62.1443 49.9665 61.62 52.8941 61.0904 55.7962C61.0717 55.9596 60.9968 56.1082 60.9782 56.2716C60.8664 57.2519 61.3128 57.9814 62.1057 58.2125C62.9749 58.4275 63.7753 57.9396 64.1268 56.9618C64.2952 56.501 64.402 56.0002 64.4887 55.5301C64.9503 52.9347 65.4172 50.3647 65.8788 47.7692C65.9616 47.4063 65.9573 47.0086 66.111 46.6041C66.1658 46.4862 66.2823 46.4085 66.4095 46.3816C66.542 46.3802 66.6599 46.435 66.7376 46.5514C66.9924 47.0025 67.2417 47.4282 67.5111 47.823C68.731 49.8241 69.9764 51.8198 71.2472 53.8102C71.5327 54.2813 71.8584 54.6909 72.2604 55.0843C72.8834 55.6436 73.6333 55.6712 74.2156 55.2825C74.9089 54.7906 75.1199 54.0285 74.7699 53.2521Z" fill="black"/>
<path d="M87.0859 45.6016C87.0283 45.4543 86.9906 45.2763 86.933 45.129C85.7002 41.9348 82.3771 40.6703 79.3452 42.294C79.0561 42.4348 78.8085 42.6465 78.5194 42.7873C78.3065 42.912 78.1016 42.8224 78.0479 42.568C77.8852 41.6723 77.7735 40.7658 77.6363 39.8647C77.5327 39.2488 77.4493 38.6021 77.1677 38.0238C76.8445 37.3746 76.1373 37.0457 75.4196 37.1707C74.7382 37.3412 74.2297 37.9535 74.2222 38.6726C74.225 38.9377 74.2533 39.1975 74.3071 39.4519C74.5922 41.3049 74.8974 43.1272 75.1825 44.9803C75.6357 47.7545 76.0942 50.5542 76.5473 53.3285C76.7128 54.4893 77.3466 55.0995 78.4863 55.3371C80.3211 55.7202 81.9732 55.2383 83.5447 54.3749C86.5966 52.7204 88.1206 48.8642 87.0859 45.6016ZM82.2585 51.4312C81.9092 51.6644 81.5237 51.8521 81.1328 52.0144C80.0658 52.3727 79.6573 52.3261 79.4395 51.0434C79.3063 50.0352 79.173 49.0269 79.2795 48.0212C79.3687 47.3115 79.5196 46.6418 79.9008 46.0564C80.4171 45.2298 81.1506 44.6763 82.1563 44.7827C83.1566 44.8638 83.7101 45.5972 83.9516 46.2371C84.6158 48.2493 83.8687 50.3735 82.2585 51.4312Z" fill="black"/>
<path d="M102.804 33.5653C102.612 32.782 101.867 32.275 101.074 32.4162C100.35 32.5158 99.8366 33.1026 99.7326 33.8686C99.6513 34.3641 99.7788 34.8421 99.8555 35.3308C100.359 38.4666 100.861 41.6023 101.364 44.7381C101.644 46.5657 101.943 46.3432 99.9289 46.8749C99.7308 46.9433 99.5273 46.9863 99.2983 47.0346C98.9877 47.0737 98.7921 46.9024 98.7276 46.5972C98.6792 46.3682 98.6362 46.1647 98.5933 45.9612C98.3457 44.2862 98.1183 42.5804 97.8707 40.9054C97.8317 40.5947 97.7873 40.2586 97.7228 39.9534C97.52 39.1193 96.8314 38.6269 96.0468 38.6863C95.3639 38.7243 94.7429 39.3073 94.6082 40.0532C94.5122 40.605 94.5741 41.15 94.6615 41.6895C94.9345 43.3592 95.182 45.0342 95.4295 46.7092C95.6609 48.3079 95.8992 48.1778 94.0784 48.6156C93.9766 48.6371 93.8749 48.6585 93.7477 48.6854C93.3862 48.7351 93.0942 48.6108 93.0136 48.2292C92.8484 47.5732 92.7395 46.9319 92.6052 46.2959C92.1749 43.756 91.7193 41.2215 91.2891 38.6816C91.1762 38.1474 91.0888 37.6078 90.7778 37.142C90.4669 36.6762 89.9337 36.4168 89.3834 36.4533C88.8277 36.4644 88.311 36.7862 88.0409 37.2684C87.7961 37.7453 87.842 38.2139 87.9495 38.7227C88.2908 40.5905 88.6122 42.489 88.9536 44.3568C89.209 45.8176 89.4644 47.2783 89.7707 48.7283C89.8688 49.3188 90.0433 49.8931 90.2941 50.4513C90.7903 51.5424 91.6584 52.1295 92.8862 52.0296C93.5437 51.997 94.1904 51.9137 94.8518 51.7739C96.1692 51.4691 97.5014 51.108 98.8134 50.7777C100.013 50.418 101.191 49.9565 102.416 49.5915C102.945 49.4532 103.474 49.3149 103.956 49.0803C104.93 48.6618 105.275 48.0309 105.137 46.9972C105.099 46.8191 105.067 46.6665 105.035 46.5139C104.335 43.0743 103.844 39.6171 103.322 36.1399C103.195 35.2897 103.038 34.4194 102.804 33.5653Z" fill="black"/>
<path d="M110.394 40.7846C110.64 40.4403 115.747 40.2118 115.267 37.8152C115.041 37.1191 114.747 36.8622 114.092 36.6551C113.595 36.4411 112.004 36.8305 110.995 36.9638C110.487 37.0713 109.841 37.2873 109.549 37.163C109.257 37.0386 108.763 34.1934 109.173 34.0003C109.584 33.8072 111.656 33.4228 112.85 33.0377C114.484 32.347 114.04 29.8633 112.255 29.8418C110.42 29.9635 108.617 30.6102 106.847 31.0372C105.622 31.4023 105.211 32.1002 105.322 33.3789C106.002 37.3542 106.86 41.2918 107.617 45.2509C107.93 46.8589 108.997 48.3874 110.813 47.9242C113.477 47.202 114.911 47.3242 115.431 46.3905C115.716 45.852 115.809 45.0351 115.457 44.4984C115.168 43.7621 113.643 43.7122 111.066 44.4692C110.517 44.6383 110.63 43.2858 110.509 42.461C110.405 41.8451 110.228 41.0056 110.394 40.7846Z" fill="black"/>
<path d="M47.611 75.5139C47.2223 74.9317 46.5659 74.592 45.93 74.7263C45.2284 74.9277 44.72 75.54 44.6924 76.2898C44.6913 76.6621 44.7719 77.0437 44.8217 77.4052C44.9789 78.2755 45.1616 79.1404 45.2881 79.9906C45.3701 80.5048 45.2297 80.7205 44.7517 80.848C43.8413 81.0669 42.9255 81.2603 42.0097 81.4538C39.7965 81.9213 40.0377 82.0564 39.6372 79.9088C39.5605 79.42 39.433 78.9421 39.28 78.4695C39.017 77.7278 38.232 77.2825 37.4488 77.4745C36.6602 77.6411 36.1625 78.3042 36.1819 79.1505C36.2048 79.3848 36.2223 79.5937 36.2653 79.7972C37.0018 83.7871 37.7129 87.7824 38.444 91.7469C38.4884 92.083 38.5583 92.4137 38.6482 92.7136C38.9019 93.537 39.6159 94.0239 40.3898 93.9136C41.1182 93.8394 41.7177 93.1548 41.7546 92.3232C41.765 91.8692 41.7045 91.4568 41.6386 91.019C41.4007 89.7671 41.1428 88.5461 40.9303 87.2888C40.8175 86.7546 40.7301 86.215 40.6681 85.6701C40.6036 85.3648 40.7588 85.0929 41.0386 85.0338C42.5341 84.6913 44.0404 84.3997 45.5413 84.0827C45.7702 84.0343 45.9859 84.1747 46.0343 84.4037C46.1242 84.7036 46.194 85.0343 46.2639 85.365C46.5286 86.7441 46.7987 88.1486 47.0688 89.5531C47.1347 89.9909 47.2515 90.418 47.4138 90.8089C47.6499 91.4233 48.3679 91.8031 49.02 91.7451C49.6413 91.667 50.1966 91.1511 50.3729 90.4761C50.5052 89.9699 50.4031 89.4865 50.301 89.0032C49.8711 86.9681 49.543 84.9115 49.1131 82.8764C48.7756 80.9015 48.4328 78.9012 48.0646 76.9062C47.9625 76.4229 47.9112 75.9288 47.611 75.5139Z" fill="black"/>
<path d="M55.4816 83.0457C55.7278 82.7014 60.8348 82.473 60.3552 80.0764C60.1284 79.3802 59.835 79.1233 59.18 78.9162C58.6831 78.7023 57.0912 79.0917 56.083 79.225C55.5742 79.3324 54.9289 79.5485 54.6369 79.4241C54.3449 79.2998 53.8502 76.4546 54.2612 76.2615C54.6721 76.0684 56.7434 75.684 57.9376 75.2989C59.5721 74.6082 59.1272 72.1245 57.3422 72.103C55.5078 72.2247 53.7045 72.8714 51.9345 73.2984C50.7095 73.6634 50.2989 74.3614 50.4096 75.6401C51.0898 79.6153 51.9482 83.553 52.7047 87.5121C53.0178 89.1201 54.0848 90.6486 55.9002 90.1854C58.5645 89.4632 59.9987 89.5854 60.519 88.6517C60.8038 88.1132 60.897 87.2963 60.5445 86.7596C60.2561 86.0233 58.7308 85.9734 56.1536 86.7304C55.6047 86.8995 55.7176 85.547 55.5966 84.7222C55.493 84.1063 55.3157 83.2668 55.4816 83.0457Z" fill="black"/>
<path d="M80.9248 68.4767C80.5361 67.8945 79.8797 67.5548 79.2438 67.6892C78.5422 67.8905 78.0338 68.5028 78.0062 69.2527C78.0051 69.6249 78.0857 70.0065 78.1355 70.368C78.2928 71.2383 78.4755 72.1032 78.6019 72.9535C78.6839 73.4676 78.5435 73.6833 78.0655 73.8108C77.1551 74.0297 76.2393 74.2232 75.3235 74.4166C73.1103 74.8841 73.3515 75.0192 72.951 72.8716C72.8743 72.3829 72.7468 71.9049 72.5938 71.4323C72.3309 70.6907 71.5459 70.2453 70.7626 70.4373C69.974 70.6039 69.4763 71.2671 69.4957 72.1133C69.5186 72.3477 69.5361 72.5565 69.5791 72.7601C70.3156 76.75 71.0267 80.7453 71.7578 84.7098C71.8023 85.0458 71.8721 85.3765 71.962 85.6764C72.2157 86.4998 72.9297 86.9867 73.7036 86.8764C74.432 86.8023 75.0315 86.1176 75.0684 85.286C75.0788 84.832 75.0183 84.4197 74.9524 83.9818C74.7145 82.73 74.4566 81.5089 74.2442 80.2517C74.1313 79.7174 74.0439 79.1779 73.9819 78.6329C73.9175 78.3276 74.0726 78.0557 74.3524 77.9966C75.8479 77.6541 77.3542 77.3625 78.8551 77.0455C79.084 76.9971 79.2997 77.1376 79.3481 77.3665C79.438 77.6664 79.5079 77.9971 79.5777 78.3278C79.8424 79.7069 80.1125 81.1114 80.3826 82.5159C80.4486 82.9537 80.5653 83.3808 80.7276 83.7717C80.9637 84.3862 81.6817 84.766 82.3338 84.708C82.9551 84.6299 83.5104 84.114 83.6867 83.4389C83.819 82.9327 83.7169 82.4494 83.6148 81.966C83.1849 79.9309 82.8568 77.8743 82.4269 75.8392C82.0895 73.8643 81.7466 71.864 81.3784 69.869C81.2763 69.3857 81.2251 68.8916 80.9248 68.4767Z" fill="black"/>
<path d="M100.548 78.4425C99.1287 74.9954 97.197 71.7628 95.5342 68.4203C94.3796 65.8474 91.7523 63.8513 89.7096 66.887C89.3484 67.4416 89.0489 68.0364 88.831 68.6404C87.464 72.8621 86.5269 77.2321 85.3849 81.5125C84.9564 83.3835 87.5697 84.5588 88.6639 82.9458C89.3207 81.9036 89.5877 80.6514 89.9833 79.5048L96.0603 77.9554C96.5844 78.8014 96.8044 79.3395 97.3325 80.0783C98.5775 81.5692 101.047 80.3035 100.548 78.4425ZM90.9927 75.2258C91.2969 73.6469 91.7137 72.0973 92.2121 70.557C93.0913 71.7 93.7631 72.9931 94.2112 74.36C93.2582 74.8802 92.2593 74.9317 90.9927 75.2258Z" fill="black"/>
<path d="M118.981 73.9906C118.857 73.4055 118.337 72.9573 117.709 72.8774C117.433 72.8293 117.174 72.8576 116.919 72.9114C116.416 73.0443 116.193 72.7458 116.011 72.3857C115.906 72.1421 115.802 71.8985 115.697 71.6548C114.429 68.92 113.185 66.1797 111.917 63.4449C111.744 63.0031 111.489 62.552 111.245 62.1518C110.717 61.413 109.846 61.0654 109.024 61.4516C108.182 61.8686 107.712 62.659 107.544 63.6246C107.275 65.2491 106.92 66.8388 106.621 68.4432C106.172 70.7172 105.742 72.9605 105.312 75.2037C105.207 75.8371 104.905 76.1667 104.263 76.2756C103.805 76.3724 103.322 76.4745 102.907 76.7747C102.265 77.2559 102.038 77.9416 102.295 78.6578C102.537 79.2978 103.153 79.6991 103.836 79.6611C104.254 79.626 104.691 79.5601 105.118 79.4433C106.954 78.9493 108.81 78.4244 110.645 77.9304C112.882 77.325 115.105 76.7758 117.317 76.1758C117.693 76.0697 118.033 75.9182 118.362 75.7157C118.95 75.3525 119.202 74.6613 118.981 73.9906ZM112.236 74.1398C111.128 74.4271 109.927 74.6542 108.807 74.8907C108.827 74.355 108.872 73.814 108.999 73.2823C109.378 71.5546 109.629 69.7213 110.151 68.0431C110.301 67.7457 110.505 68.2075 110.562 68.3548C111.293 69.9277 112.029 71.5261 112.735 73.1044C113.038 73.7844 112.943 73.9639 112.236 74.1398Z" fill="black"/>
<path d="M131.153 63.8991C130.823 62.587 130.116 61.381 129.142 60.4175C129.075 60.352 128.014 59.3537 126.678 58.9449C123.659 57.9882 120.652 60.4835 120.445 60.6337C119.808 61.1403 119.285 61.8088 118.936 62.5469C118.751 62.9313 118.623 63.3304 118.525 63.7496C118.132 65.5335 118.281 67.1229 118.865 69.2583C119.004 69.7872 119.116 70.3214 119.28 70.8448C119.712 72.1354 120.515 73.2945 121.524 74.1709C123.217 75.6468 125.482 75.6733 127.002 74.8207C127.97 74.2442 128.815 73.5875 129.453 72.7086C131.387 70.0412 131.988 67.0976 131.153 63.8991ZM126.586 70.71C125.263 72.3714 123.879 72.2384 122.901 70.3724C122.131 68.9937 122.074 67.4645 122.073 65.95C122.063 65.5269 122.155 65.0822 122.196 64.6483C122.296 63.9895 122.627 63.4148 123.086 62.9458C124.058 61.8899 125.511 61.8488 126.587 62.7908C127.283 63.4411 127.669 64.263 127.868 65.2042C128.267 67.2193 127.864 69.0849 126.586 70.71Z" fill="black"/>
<path fill-rule="evenodd" clip-rule="evenodd" d="M17.4397 93.5287C27.7741 101.148 44.4413 105.495 67.6485 106.733C120.15 109.532 148.007 92.5555 157.733 73.036C167.493 53.4458 159.327 30.8336 138.768 21.2301C122.097 13.4426 98.2805 10.672 73.3426 14.756C61.0034 16.7767 48.4415 20.2235 36.4025 25.0473C33.9279 26.6742 29.4342 29.3225 27.2486 30.9902C12.7632 42.043 5.81337 53.7723 3.90396 64.4908C2.01082 75.1179 7.17395 85.9596 17.4397 93.5287ZM34.7971 23.4244C22.3988 28.4198 10.5397 35.8518 0 43.681L2.03557 45.0152C8.61908 40.1247 15.7367 35.787 23.1881 32.0152C10.8812 42.4003 3.66086 53.4645 1.78312 64.0052C-0.313265 75.7732 4.29453 86.6716 15.4133 94.8696C26.4633 103.017 43.876 109.462 67.4612 110.72C120.702 113.559 149.104 94.3546 159.6 73.2884C170.061 52.293 161.328 28.9174 139.152 18.5587C121.636 10.3763 98.1189 8.65543 72.7753 12.8059C65.2652 14.0358 57.6711 15.784 50.1545 18.0417C61.8061 12.0171 75.6982 6.50483 91.8398 1.86043L90.8735 0C67.7084 6.66522 49.0041 14.1332 34.7971 23.4244Z" fill="black"/>
<path d="M150.126 149.128C151.037 150.489 151.418 151.536 150.82 151.947C150.524 152.117 150.231 152.17 149.942 152.132C149.785 152.297 149.579 152.407 149.318 152.456C147.216 152.242 145.58 150.67 143.968 149.123C143.101 148.29 142.241 147.464 141.32 146.861C137.581 143.714 133.707 140.734 129.834 137.755C129.345 137.379 128.856 137.003 128.367 136.627C126.166 134.939 123.957 133.297 121.695 131.696C121.425 131.411 120.972 131.153 120.497 130.881C119.403 130.255 118.186 129.559 118.782 128.313C119.916 126.85 123.082 129.417 125.626 131.479C126.794 132.426 127.831 133.266 128.48 133.561C133.428 137.168 138.258 140.932 142.965 144.848C142.331 144.137 141.698 143.425 141.065 142.713C137.399 138.59 133.733 134.468 129.921 130.481C118.44 118.304 105.388 107.62 91.3309 98.5494C90.3373 99.3805 89.4144 98.5232 88.547 97.7175C88.1775 97.3743 87.818 97.0404 87.4675 96.8504C85.9459 96.1698 85.8942 93.582 87.8821 93.8384C94.3095 96.7573 100.021 101.133 105.668 105.459C107.273 106.688 108.873 107.914 110.483 109.101C121.204 117.538 130.753 127.171 139.829 137.371C140.256 138.067 141.689 139.578 143.396 141.379C143.931 141.943 144.492 142.535 145.059 143.14C141.89 135.358 138.388 127.714 134.622 120.203C134.47 119.548 133.834 118.513 133.141 117.384C131.8 115.203 130.245 112.674 131.574 111.878C133.513 110.634 138.283 121.445 141.417 128.55C142.595 131.221 143.542 133.368 144.021 134.154C144.212 134.985 145.05 136.782 146.056 138.939C147.58 142.206 149.49 146.3 150.126 149.128Z" fill="black"/>
</g>
<defs>
<clipPath id="clip0_1830_1606">
<rect width="164" height="153" fill="white"/>
</clipPath>
</defs>
</svg>
