<svg width="65" height="64" viewBox="0 0 65 64" fill="none" xmlns="http://www.w3.org/2000/svg">
<path d="M3.23081 5.90764C2.55315 4.57703 3.51976 3 5.013 3H60.487C61.9802 3 62.9468 4.57703 62.2692 5.90764L57.6856 14.9076C57.3443 15.5779 56.6557 16 55.9034 16H9.59655C8.84434 16 8.15574 15.5779 7.81437 14.9076L3.23081 5.90764Z" fill="#FF6646"/>
<path opacity="0.8" d="M9.65256 20.6457C9.2099 19.3481 10.1744 18 11.5454 18H53.9546C55.3256 18 56.2901 19.3481 55.8474 20.6457L52.7772 29.6457C52.5009 30.4556 51.74 31 50.8843 31H14.6157C13.76 31 12.9991 30.4556 12.7228 29.6457L9.65256 20.6457Z" fill="#02CE79"/>
<path opacity="0.8" d="M14.4217 35.5159C14.0827 34.246 15.0397 33 16.354 33H49.146C50.4603 33 51.4173 34.246 51.0783 35.5159L48.6756 44.5159C48.442 45.3911 47.6492 46 46.7433 46H18.7567C17.8508 46 17.058 45.3911 16.8244 44.5159L14.4217 35.5159Z" fill="#10578F"/>
<path opacity="0.8" d="M19.1412 50.331C18.9365 49.1113 19.8768 48 21.1136 48H44.3864C45.6232 48 46.5635 49.1113 46.3588 50.331L44.8483 59.331C44.6866 60.2944 43.8527 61 42.8759 61H22.6241C21.6473 61 20.8134 60.2944 20.6517 59.331L19.1412 50.331Z" fill="#2196F3"/>
</svg>
