<svg width="65" height="64" viewBox="0 0 65 64" fill="none" xmlns="http://www.w3.org/2000/svg">
<path d="M2.56126 21.6922C3.41947 13.5269 3.84857 9.4443 5.76543 6.49259C7.45155 3.8962 9.91634 1.90025 12.8066 0.790797C16.0923 -0.47048 20.1749 -0.0413773 28.3402 0.816827L42.5579 2.31117C50.7232 3.16938 54.8059 3.59848 57.7576 5.51534C60.354 7.20145 62.3499 9.66625 63.4594 12.5565C64.7206 15.8422 64.2915 19.9248 63.4333 28.0901L61.939 42.3079C61.0808 50.4731 60.6517 54.5558 58.7348 57.5075C57.0487 60.1039 54.5839 62.0998 51.6937 63.2093C48.4079 64.4705 44.3253 64.0414 36.16 63.1832L21.9423 61.6889C13.777 60.8307 9.69439 60.4016 6.74268 58.4847C4.14629 56.7986 2.15034 54.3338 1.04089 51.4436C-0.220388 48.1579 0.208714 44.0752 1.06692 35.9099L2.56126 21.6922Z" fill="#10578F"/>
<path d="M4.83041 10.9171C3.25 14.0189 3.25 18.0792 3.25 26.2V37.8C3.25 45.9208 3.25 49.9811 4.83041 53.0829C6.22057 55.8112 8.43879 58.0294 11.1671 59.4196C14.2689 61 18.3292 61 26.45 61H38.05C46.1708 61 50.2311 61 53.3329 59.4196C56.0612 58.0294 58.2794 55.8112 59.6696 53.0829C61.25 49.9811 61.25 45.9208 61.25 37.8V26.2C61.25 18.0792 61.25 14.0189 59.6696 10.9171C58.2794 8.18879 56.0612 5.97057 53.3329 4.58041C50.2311 3 46.1708 3 38.05 3H26.45C18.3292 3 14.2689 3 11.1671 4.58041C8.43879 5.97057 6.22057 8.18879 4.83041 10.9171Z" fill="#02CE79"/>
<rect x="13.0784" y="17.8284" width="12" height="4" rx="2" transform="rotate(45 13.0784 17.8284)" fill="white"/>
<rect x="27.2209" y="15" width="4" height="16" rx="2" transform="rotate(45 27.2209 15)" fill="white"/>
<rect x="54.0494" y="20.071" width="4" height="16" rx="2" transform="rotate(90 54.0494 20.071)" fill="#00182C"/>
<rect x="13.0784" y="36.9705" width="12" height="4" rx="2" transform="rotate(45 13.0784 36.9705)" fill="white"/>
<rect x="27.2209" y="34.1421" width="4" height="16" rx="2" transform="rotate(45 27.2209 34.1421)" fill="white"/>
<rect x="54.0494" y="39.2133" width="4" height="16" rx="2" transform="rotate(90 54.0494 39.2133)" fill="#00182C"/>
</svg>
