<svg width="65" height="64" viewBox="0 0 65 64" fill="none" xmlns="http://www.w3.org/2000/svg">
<path fill-rule="evenodd" clip-rule="evenodd" d="M0.25 32.8572C0.25 27.2567 0.25 24.4564 1.33993 22.3173C2.29867 20.4357 3.82847 18.9058 5.71009 17.9471C7.84921 16.8572 10.6495 16.8572 16.25 16.8572H34.25C39.8505 16.8572 42.6508 16.8572 44.7899 17.9471C46.6715 18.9058 48.2013 20.4357 49.1601 22.3173C50.25 24.4564 50.25 27.2567 50.25 32.8572V36.8572C50.25 42.4577 50.25 45.258 49.1601 47.3971C48.2013 49.2787 46.6715 50.8085 44.7899 51.7672C42.6508 52.8572 39.8505 52.8572 34.25 52.8572H16.25C16.2243 52.8572 16.1987 52.8572 16.1731 52.8572L9.65234 61.3341C9.39865 61.6639 9.00619 61.8572 8.59012 61.8572C7.84999 61.8572 7.25 61.2572 7.25 60.5171V52.3424C6.6889 52.1961 6.18332 52.0084 5.71009 51.7672C3.82847 50.8085 2.29867 49.2787 1.33993 47.3971C0.25 45.258 0.25 42.4577 0.25 36.8572V32.8572Z" fill="#2196F3"/>
<rect x="40.25" y="27.8572" width="4" height="30" rx="2" transform="rotate(90 40.25 27.8572)" fill="#00182C"/>
<rect x="32.25" y="37.8572" width="4" height="22" rx="2" transform="rotate(90 32.25 37.8572)" fill="#00182C"/>
<path opacity="0.9" fill-rule="evenodd" clip-rule="evenodd" d="M64.25 21.8572C64.25 16.2567 64.25 13.4564 63.1601 11.3173C62.2013 9.43565 60.6715 7.90585 58.7899 6.94711C56.6508 5.85718 53.8505 5.85718 48.25 5.85718H30.25C24.6495 5.85718 21.8492 5.85718 19.7101 6.94711C17.8285 7.90585 16.2987 9.43565 15.3399 11.3173C14.25 13.4564 14.25 16.2567 14.25 21.8572V25.8572C14.25 31.4577 14.25 34.258 15.3399 36.3971C16.2987 38.2787 17.8285 39.8085 19.7101 40.7672C21.8492 41.8572 24.6495 41.8572 30.25 41.8572H48.25C48.2757 41.8572 48.3013 41.8572 48.3269 41.8572L54.8477 50.3341C55.1013 50.6639 55.4938 50.8572 55.9099 50.8572C56.65 50.8572 57.25 50.2572 57.25 49.5171V41.3424C57.8111 41.1961 58.3167 41.0084 58.7899 40.7672C60.6715 39.8085 62.2013 38.2787 63.1601 36.3971C64.25 34.258 64.25 31.4577 64.25 25.8572V21.8572Z" fill="#02CE79"/>
<rect x="54.25" y="16.8572" width="4" height="30" rx="2" transform="rotate(90 54.25 16.8572)" fill="white"/>
<rect x="41.25" y="27.8572" width="4" height="17" rx="2" transform="rotate(90 41.25 27.8572)" fill="white"/>
</svg>
