<svg width="96" height="96" viewBox="0 0 96 96" fill="none" xmlns="http://www.w3.org/2000/svg">
<g clip-path="url(#clip0_296_30267)">
<path fill-rule="evenodd" clip-rule="evenodd" d="M96 48C96 74.5097 74.5097 96 48 96C21.4903 96 0 74.5097 0 48C0 21.4903 21.4903 0 48 0C74.5097 0 96 21.4903 96 48ZM49.72 35.4358C45.0513 37.3777 35.7205 41.3969 21.7275 47.4934C19.4553 48.397 18.265 49.281 18.1566 50.1453C17.9735 51.6061 19.8028 52.1813 22.2938 52.9646C22.6327 53.0711 22.9838 53.1815 23.3437 53.2985C25.7945 54.0952 29.0912 55.0272 30.8051 55.0642C32.3597 55.0978 34.0948 54.4569 36.0105 53.1415C49.0846 44.3161 55.8335 39.8553 56.2572 39.7592C56.5561 39.6913 56.9703 39.606 57.251 39.8555C57.5317 40.1049 57.5041 40.5774 57.4743 40.7041C57.2931 41.4767 50.1124 48.1525 46.3964 51.6072C45.238 52.6842 44.4162 53.4482 44.2482 53.6226C43.8719 54.0135 43.4884 54.3832 43.1199 54.7385C40.843 56.9334 39.1356 58.5794 43.2144 61.2672C45.1745 62.5589 46.743 63.6271 48.3078 64.6927C50.0167 65.8564 51.7211 67.0172 53.9264 68.4627C54.4882 68.831 55.0248 69.2136 55.5475 69.5862C57.5362 71.004 59.3229 72.2777 61.5303 72.0746C62.8129 71.9566 64.1378 70.7505 64.8106 67.1535C66.4008 58.6527 69.5264 40.2339 70.2488 32.644C70.3121 31.979 70.2325 31.128 70.1685 30.7544C70.1046 30.3808 69.971 29.8485 69.4854 29.4545C68.9103 28.9878 68.0225 28.8894 67.6254 28.8964C65.82 28.9282 63.0501 29.8914 49.72 35.4358Z" fill="#1D98DC"/>
<path d="M21.7278 47.4933C35.7208 41.3968 45.0516 37.3776 49.7203 35.4357C63.0504 29.8913 65.8203 28.9281 67.6257 28.8963C68.0228 28.8893 68.9106 28.9877 69.4857 29.4544C69.9713 29.8484 70.1049 30.3807 70.1688 30.7543C70.2328 31.1279 70.3124 31.9789 70.2491 32.6439C69.5267 40.2338 66.4011 58.6526 64.8109 67.1534C64.1381 70.7504 62.8132 71.9565 61.5306 72.0745C59.3232 72.2776 57.5365 71.0039 55.5478 69.5861C55.0252 69.2136 54.4884 68.8309 53.9267 68.4626C51.7215 67.0171 50.0171 65.8564 48.3083 64.6927C46.7435 63.6271 45.1748 62.5588 43.2147 61.2671C39.1359 58.5793 40.8433 56.9333 43.1202 54.7384C43.4888 54.3831 43.8723 54.0134 44.2486 53.6225C44.4165 53.4481 45.2383 52.6841 46.3967 51.6071C50.1127 48.1524 57.2934 41.4766 57.4746 40.704C57.5044 40.5773 57.532 40.1048 57.2513 39.8554C56.9706 39.6059 56.5564 39.6912 56.2575 39.7591C55.8338 39.8552 49.0849 44.316 36.0108 53.1413C34.0952 54.4568 32.36 55.0977 30.8054 55.0641C29.0915 55.0271 25.7948 54.0951 23.344 53.2984C22.9841 53.1814 22.633 53.071 22.2941 52.9645C19.8031 52.1812 17.9738 51.606 18.1569 50.1452C18.2653 49.2809 19.4556 48.3969 21.7278 47.4933Z" fill="white"/>
</g>
<defs>
<clipPath id="clip0_296_30267">
<rect width="96" height="96" fill="white"/>
</clipPath>
</defs>
</svg>
