<svg width="96" height="97" viewBox="0 0 96 97" fill="none" xmlns="http://www.w3.org/2000/svg">
<path d="M62.72 0.588867C89.6 0.588867 96 6.98887 96 33.8689V63.3089C96 90.1889 89.6 96.5889 62.72 96.5889H33.28C6.4 96.5889 0 90.1889 0 63.3089V33.8689C0 6.98887 6.4 0.588867 33.28 0.588867H62.72Z" fill="#FF9147"/>
<path d="M70.9161 23.5294L70.2905 29.6746C70.1359 31.2277 69.1248 31.624 67.4934 31.624H53.7975V73.5666C53.7975 75.2779 53.5647 75.5889 52.0027 75.5889H43.215C41.5783 75.5889 41.4237 75.3543 41.4237 73.7229V31.624H27.184C25.6238 31.624 25 30.8439 25 29.2854V23.5294C25 22.2091 25.7019 21.5871 27.1058 21.5889H68.9702C70.2514 21.5889 71.0476 22.2286 70.9161 23.5294Z" fill="white"/>
</svg>
