<svg width="98" height="96" viewBox="0 0 98 96" fill="none" xmlns="http://www.w3.org/2000/svg">
<path d="M51.3709 42.5922V75.8748H45.0768V40.2568L51.3709 42.5922Z" fill="#212324"/>
<path d="M26.23 39.4894C26.23 30.9787 30.9334 26.3394 36.4471 26.3394C41.9607 26.3394 42.7393 27.123 48.9998 30.2107C55.2603 33.2984 56.8493 34.0821 59.9954 34.0821C63.1416 34.0821 64.6988 31.731 64.6988 27.1074H70.1807C70.9751 36.3861 65.4773 40.2574 59.9637 40.2574C54.45 40.2574 52.8928 39.4737 47.4109 36.3861C41.929 33.2984 40.34 32.5147 37.1939 32.5147C34.0477 32.5147 32.4905 34.8657 31.712 40.2574L26.23 39.4894Z" fill="#212324"/>
<path d="M49 96C39.3756 96 29.9673 93.1849 21.9649 87.9105C13.9625 82.6362 7.72537 75.1397 4.04226 66.3688C0.359158 57.598 -0.60451 47.9468 1.27312 38.6357C3.15075 29.3246 7.78534 20.7718 14.5908 14.0589C21.3963 7.34597 30.067 2.77442 39.5065 0.922328C48.946 -0.929762 58.7303 0.0207978 67.6221 3.6538C76.5139 7.28681 84.1138 13.4391 89.4609 21.3326C94.8079 29.2262 97.6619 38.5065 97.6619 48C97.6472 60.7259 92.5156 72.9265 83.3929 81.9251C74.2702 90.9237 61.9014 95.9855 49 96ZM49 3.13471C39.9978 3.13471 31.1978 5.76786 23.7128 10.7012C16.2278 15.6345 10.3939 22.6464 6.94892 30.8502C3.50394 39.0539 2.60257 48.0812 4.35881 56.7903C6.11504 65.4994 10.45 73.4992 16.8155 79.7781C23.181 86.057 31.2911 90.333 40.1203 92.0653C48.9495 93.7977 58.1012 92.9086 66.4181 89.5104C74.735 86.1123 81.8436 80.3578 86.845 72.9746C91.8463 65.5914 94.5157 56.9111 94.5157 48.0314C94.5073 36.1266 89.7092 24.7118 81.1752 16.2938C72.6412 7.87585 61.0689 3.14302 49 3.13471Z" fill="#212324"/>
</svg>
