<svg width="96" height="96" viewBox="0 0 96 96" fill="none" xmlns="http://www.w3.org/2000/svg">
<path d="M89.7911 55.5758C92.645 31.4891 88.42 16.2825 80.7992 9.40454L80.8032 9.40054C68.5031 -2.3451 26.9633 -4.08357 12.2478 9.92808C5.63937 16.782 3.31167 26.8412 3.05658 39.2942C2.80149 51.7512 2.49858 75.0866 24.1852 81.417H24.2051L24.1852 91.0845C24.1852 91.0845 24.0377 95.001 26.5328 95.7883C29.3866 96.7155 30.678 94.8971 39.5544 84.2665C54.3974 85.5574 65.7967 82.6 67.0921 82.1684C70.0894 81.1612 87.0489 78.9112 89.7911 55.5758ZM41.0171 77.4645C41.0171 77.4645 31.6227 89.2102 28.7011 92.2595C27.7445 93.2506 26.6962 93.1587 26.7122 91.1924C26.7122 89.9015 26.7839 75.1426 26.7839 75.1426C8.39753 69.8592 9.48166 49.9887 9.68095 39.5939C9.88024 29.1951 11.7775 20.6786 17.3735 14.9437C30.2834 2.80636 66.7015 5.51997 75.9804 14.2643C87.3239 24.3474 83.2863 52.8342 83.3103 53.8054C80.9786 73.2842 67.2356 74.5191 64.7086 75.3624C63.6285 75.722 53.6042 78.3078 41.0171 77.4645Z" fill="#7360F2"/>
<path d="M46.2146 17.2256C44.6801 17.2256 44.6801 19.6235 46.2146 19.6434C58.1201 19.7354 67.9251 28.056 68.0327 43.3185C68.0327 44.9291 70.3844 44.9091 70.3644 43.2986H70.3605C70.2329 26.8531 59.5271 17.3175 46.2146 17.2256Z" fill="#7360F2"/>
<path d="M61.8746 40.789C61.8387 42.3795 64.1863 42.4555 64.2063 40.8449C64.4016 31.7769 58.8254 24.3075 48.3468 23.5202C46.8123 23.4083 46.6528 25.8261 48.1834 25.9381C57.271 26.6294 62.0579 32.848 61.8746 40.789Z" fill="#7360F2"/>
<path d="M59.3638 51.1037C57.3948 49.9607 55.39 50.6721 54.5609 51.7951L52.8271 54.0451C51.9463 55.1881 50.3001 55.0363 50.3001 55.0363C38.287 51.8511 35.0745 39.2462 35.0745 39.2462C35.0745 39.2462 34.927 37.5397 36.0271 36.6245L38.1953 34.8261C39.2795 33.9628 39.965 31.8847 38.8609 29.8425C35.9115 24.4992 33.9305 22.6568 32.9221 21.2421C31.8619 19.9112 30.2676 19.6115 28.6095 20.5107H28.5736C25.1259 22.5329 21.3514 26.3176 22.5591 30.2141C24.6197 34.3225 28.4062 47.419 40.4752 57.3142C46.147 61.9941 55.1229 66.7899 58.9334 67.8969L58.9692 67.9529C62.7238 69.2078 66.3748 65.2752 68.3239 61.7144V61.6864C69.1888 59.9639 68.9018 58.3334 67.6383 57.2663C65.3983 55.0762 62.0183 52.6584 59.3638 51.1037Z" fill="#7360F2"/>
<path d="M49.9891 32.4402C53.8194 32.664 55.6768 34.6703 55.8761 38.7906C55.9478 40.4012 58.2795 40.2893 58.2078 38.6787C57.9527 33.2995 55.1547 30.3021 50.1167 30.0224C48.5822 29.9304 48.4387 32.3483 49.9891 32.4402Z" fill="#7360F2"/>
</svg>
