<svg width="96" height="96" viewBox="0 0 96 96" fill="none" xmlns="http://www.w3.org/2000/svg">
<path d="M62.72 0C89.6 0 96 6.4 96 33.28V62.72C96 89.6 89.6 96 62.72 96H33.28C6.4 96 0 89.6 0 62.72V33.28C0 6.4 6.4 0 33.28 0H62.72Z" fill="#2787F5"/>
<path d="M25.0001 30H18.0001C16.0001 30 15.6001 30.9415 15.6001 31.9797C15.6001 33.8338 17.9733 43.0296 26.6499 55.1918C32.4343 63.4976 40.5841 68 48.0001 68C52.4497 68 53.0001 67 53.0001 65.2775V59C53.0001 57 53.4216 56.6009 54.8307 56.6009C55.8689 56.6009 57.6487 57.12 61.8018 61.1246C66.548 65.8708 67.3304 68 70.0001 68H77.0001C79.0001 68 80.0001 67 79.4232 65.0266C78.7919 63.0597 76.5259 60.2061 73.519 56.8233C71.8874 54.8952 69.4402 52.8188 68.6985 51.7803C67.6604 50.4456 67.957 49.8522 68.6985 48.6658L68.8232 48.4891C69.8779 46.99 77.2906 36.3605 78.117 32.5731C78.5618 31.0899 78.117 30 76.0001 30H69.0001C67.2202 30 66.3997 30.9415 65.9547 31.9797C65.9547 31.9797 62.3949 40.6565 57.3521 46.2926C55.7206 47.9241 54.9789 48.4432 54.089 48.4432C53.6441 48.4432 53 47.9241 53 46.441V32.5731C53 30.7932 52.4835 30 51.0001 30H40.0001C38.8879 30 38.2189 30.8261 38.2189 31.609C38.2189 33.2963 40.7402 33.6854 41.0001 38.4317V48.74C41.0001 51 40.592 51.4098 39.702 51.4098C37.329 51.4098 31.5566 42.6942 28.133 32.7214C27.4621 30.783 26.7891 30 25.0001 30Z" fill="white"/>
</svg>
