<svg width="96" height="96" viewBox="0 0 96 96" fill="none" xmlns="http://www.w3.org/2000/svg">
<path d="M48.0034 96L47.9744 95.9952H47.8971C32.5257 95.9952 22.7047 88.6831 21.7386 88.261L3.6233 92.9917L8.4782 75.3059L7.32365 73.4864C2.54122 65.8396 0.000244141 57.0331 0.000244141 47.9646C0.000244141 5.30035 51.9066 -16.0342 81.9442 14.1214C111.909 43.9616 90.8714 96 48.0034 96Z" fill="#00E676"/>
<path d="M74.0352 67.7617C72.9351 71.0983 68.5692 73.8655 65.0868 74.6737C62.7043 75.2186 59.5924 75.6532 49.1165 70.9881C35.7167 65.025 27.0875 50.399 26.415 49.45C25.7709 48.5011 21.0004 41.7054 21.0004 34.6771C21.0004 27.6488 24.3232 24.2264 25.6626 22.7571C26.7627 21.551 28.5808 21 30.3249 21C30.8892 21 31.3964 21.0306 31.8524 21.0551C33.1918 21.1163 33.8644 21.202 34.7478 23.4734C35.8478 26.3202 38.5266 33.3486 38.8458 34.071C39.1707 34.7934 39.4956 35.773 39.0396 36.7219C38.6121 37.7015 38.236 38.1362 37.5634 38.9688C36.8909 39.8014 36.2525 40.4381 35.5799 41.332C34.9644 42.1095 34.269 42.9421 35.0442 44.3808C35.8193 45.789 38.4981 50.4847 42.4423 54.256C47.532 59.1232 51.6585 60.6782 53.1347 61.3394C54.2347 61.8292 55.5457 61.7129 56.3493 60.7946C57.3695 59.613 58.6291 57.6539 59.9115 55.7253C60.8235 54.3417 61.9748 54.1703 63.1831 54.6601C64.4142 55.1192 70.9289 58.5783 72.2683 59.2946C73.6077 60.017 74.4911 60.3599 74.816 60.966C75.1352 61.5721 75.1352 64.4189 74.0352 67.7617Z" fill="#FAFAFA"/>
</svg>
