<svg width="493" height="221" viewBox="0 0 493 221" fill="none" xmlns="http://www.w3.org/2000/svg">
    <path d="M163.195 204.16C159.83 204.9 152.205 174.246 148.812 158.827C149.67 150.702 175.97 148.002 174.969 157.481C173.968 166.96 171.467 202.34 163.195 204.16Z" fill="#CBD0D6" stroke="black" stroke-linecap="round" stroke-linejoin="round"/>
    <path d="M182.359 72.1285C183.994 69.4033 189.644 77.2316 191.89 83.0217C195.256 91.6967 197.341 101.656 205.507 99.3613C212.315 99.3613 212.676 87.2348 212.315 77.5754C212.066 70.9346 210.902 60.6304 213.676 63.9587C217.642 68.717 221.608 77.1706 225.036 84.4769L225.036 84.4773C227.493 89.7153 229.674 94.3637 231.38 96.6379C235.464 102.084 250.442 108.908 264.059 104.808C270.865 102.758 277.673 117.063 273.588 121.147C264.818 128.164 260.373 128.401 250.441 133.503C248.031 134.741 244.589 136.184 240.909 138.105C236.312 140.505 231.113 143.796 227.293 148.38C225.766 150.213 216.4 157.616 209.592 157.616C191.752 165.259 166.452 174.251 161.934 174.251C156.911 175.507 146.868 179.662 141.51 180.821C128.016 183.739 107.469 187.867 97.9375 186.964C89.0591 187.557 79.2452 187.867 67.9821 187.867C67.9821 187.867 59.3866 160.92 84.3236 144.295C96.0848 137.345 108.476 132.517 121.085 129.317C127.893 129.317 143.169 125.286 154.188 121.147C162.778 117.921 171.303 113.69 179.636 107.531C179.636 95.2764 177.945 80.8429 182.359 72.1285Z" fill="#CBD0D6" stroke="black" stroke-linecap="round" stroke-linejoin="round"/>
    <path d="M196.978 204.177C193.538 205.302 182.168 174.646 176.912 159.177C176.912 150.739 204.145 145.114 204.145 154.958C204.145 164.802 208.23 200.498 196.978 204.177Z" fill="#CBD0D6"/>
    <path d="M78.8786 219.185C73.4356 223.268 62.533 194.677 67.9834 167.443C89.7685 160.636 127.895 129.318 131.982 163.358C136.347 199.706 123.816 227.353 119.728 219.185C110.193 205.569 110.196 166.082 96.5798 167.442C85.6863 166.082 89.7681 209.654 78.8786 219.185Z" fill="#CBD0D6"/>
    <path d="M67.9815 166.082C66.3281 174.344 66.1795 182.855 66.9269 190.591C67.4046 195.536 68.2486 200.165 69.2996 204.208C72.0241 214.688 73.4151 221.237 76.1525 219.184C79.0274 217.028 84.0463 211.836 85.5709 204.208C86.9341 197.388 87.6827 188.621 87.6827 178.337M131.981 163.357C133.048 172.24 133.106 180.523 132.524 187.868C129.256 198.761 129.932 205.374 127.829 211.016C124.927 218.798 121.517 222.165 119.727 219.184C116.926 214.518 115.298 208.293 112.917 197.399C111.796 192.273 109.517 186.046 108.582 178.337" stroke="black" stroke-linecap="round" stroke-linejoin="round"/>
    <path d="M31.2469 162.484C55.2021 166.893 88.457 152.623 102.09 144.936C72.1405 142.148 55.8119 136.666 35.3933 133.899C19.0585 131.685 6.78952 138.376 2.6969 141.998C-1.46015 149.742 7.29162 158.075 31.2469 162.484Z" fill="#CBD0D6"/>
    <path d="M91.1295 150.436C80.3928 155.299 61.1745 161.186 51.9974 162.485C44.7829 163.506 37.6788 163.669 31.2455 162.485C24.3167 161.209 18.9687 159.375 14.878 157.292C4.82563 152.173 -2.82414 152.466 2.69553 141.998C4.42065 140.471 7.59854 138.399 11.9213 136.679C23.048 130.679 25.9426 132.618 35.3919 133.899C40.75 134.625 46.2894 135.622 51.6421 136.679C57.3061 137.797 63.2386 140.002 69.2622 140.211C76.3084 140.211 82.9476 142.695 91.1295 143.734" stroke="black" stroke-linecap="round" stroke-linejoin="round"/>
    <path d="M176.912 159.388C178.213 163.198 176.912 166.082 181.726 172.89C183.408 177.428 185.227 182.148 187.017 186.506C191.169 196.611 195.17 204.766 196.978 204.177C199.696 202.639 202.431 198.761 202.431 189.229C203.278 183.243 203.706 176.346 203.923 170.166C204.145 163.84 204.145 158.265 204.145 155.188" stroke="black" stroke-linecap="round" stroke-linejoin="round"/>
    <path d="M273.865 112.354C272.458 115.571 261.298 119.392 257.779 117.381" stroke="black"/>
    <path d="M178.77 117.063C178.684 118.145 176.934 126.263 177.559 126.519C179.026 127.119 182.438 126.67 182.438 126.67C182.438 126.67 183.448 128.477 182.211 129.469C180.735 130.654 179.107 131.618 177.654 132.835C176.304 133.966 176.929 134.013 178.467 134.424C181.437 135.217 184.423 135.842 187.355 136.788C188.528 137.166 191.318 137.541 192.235 138.509C192.452 138.739 189.443 139.86 189.303 139.927C187.863 140.624 186.557 141.633 185.048 142.178C184.718 142.297 191.507 146.407 192.31 146.83C194.463 147.965 196.721 149.016 198.854 150.083" stroke="black" stroke-linecap="round"/>
    <path d="M100.42 158.064C99.0278 158.406 97.9267 156.093 98.3911 155.438C98.8158 154.766 100.294 155.163 100.727 155.671C101.27 156.309 101.806 157.724 100.42 158.064Z" fill="black"/>
    <path d="M220.579 117.381C220.579 120.397 219.574 122.408 216.055 122.408C212.536 122.408 213.039 117.381 215.05 115.37C217.061 113.36 220.579 114.365 220.579 117.381Z" fill="#F54E67" stroke="white" stroke-linecap="round"/>
    <path d="M236.732 111.892C236.732 114.908 236.163 116.878 232.644 116.878C229.125 116.878 228.12 112.354 230.13 110.344C232.141 108.333 236.732 108.876 236.732 111.892Z" fill="#F54E67" stroke="white" stroke-linecap="round"/>
    <path d="M367.206 26.5004C365.602 11.777 386.093 -6.09049 397.562 6.52557C398.243 7.27432 399.923 6.8355 400.275 5.88672C403.259 -2.16233 416.719 -0.171259 418.324 6.44232C418.508 7.20489 419.397 7.75151 420.104 7.41038C440.463 -2.41754 446.947 8.36522 446.125 16.6122C456.773 12.8076 477.119 22.7066 465.079 36.7217C474.323 36.0286 489.425 47.4815 481.103 57.5051C480.432 58.313 481.156 60.4441 482.101 60.9027C490.376 64.9198 492.127 85.5325 479.55 86.3569C484.84 95.0917 484.616 123.445 466.393 121.564C465.383 121.459 464.318 123.003 464.582 123.983C466.915 132.66 452.514 144.877 438.996 135.755C438.538 135.446 437.91 135.524 437.527 135.923C431.693 142.019 406.763 153.469 402.442 130.73C394.201 137.689 370.264 143.24 372.948 122.344C373.038 121.647 372.436 120.994 371.734 121.03C360.333 121.606 339.107 105.879 356.859 93.1845C346.855 92.4138 331.159 80.1827 349.348 67.9264C350.08 67.4337 349.941 66.237 349.13 65.8915C341.161 62.4978 344.259 55.3773 349.324 53.4951C350.111 53.2027 350.514 52.1242 349.985 51.4727C337.766 36.4465 352.297 24.0944 365.702 27.7957C366.485 28.0122 367.294 27.3088 367.206 26.5004Z" fill="white" stroke="black" stroke-linecap="round" stroke-linejoin="round"/>
    <path d="M277.674 108.831C286.031 98.9894 295.921 90.6115 306.868 82.4093C321.669 71.3203 336.931 60.4512 353.634 51.0626C361.626 46.5704 371.973 42.662 378.985 37.2715" stroke="#42A5F5" stroke-linecap="round"/>
    <path d="M278.498 109.464C315.443 87.22 356.413 66.7381 396.465 46.5594C408.117 40.6893 419.586 34.6751 430.876 28.4058" stroke="#42A5F5" stroke-linecap="round"/>
    <path d="M280.363 115.021C318.596 103.89 358.259 96.0593 397.906 90.078C420.494 86.6703 443.017 83.4447 465.244 78.5498" stroke="#42A5F5" stroke-linecap="round"/>
    <path d="M280.969 117.063C329.699 115.663 378.525 115.445 426.758 109.464" stroke="#42A5F5" stroke-linecap="round"/>
    <path d="M312.428 99.7872C351.942 81.9405 397.466 66.4393 442.121 56.5562" stroke="#42A5F5" stroke-linecap="round"/>
    <path d="M313.916 108.831C340.398 106.146 366.701 102.941 392.988 99.3315" stroke="#42A5F5" stroke-linecap="round"/>
    <path d="M281.078 80.0073C282.497 83.4015 284.361 86.616 286.1 89.8507" stroke="black" stroke-linecap="round"/>
    <path d="M282.101 81.498C284.554 79.9654 285.538 79.3943 287.519 81.1967C288.805 82.3665 285.887 86.3875 284.865 87.1412" stroke="black" stroke-linecap="round"/>
    <path d="M290.643 79.0731C291.847 77.9077 293.064 76.7937 294.33 75.712" stroke="black" stroke-linecap="round"/>
    <path d="M294.477 69.0059C296.297 71.7168 297.979 74.5281 299.736 77.2775" stroke="black" stroke-linecap="round"/>
    <path d="M294.896 69.9532C296.427 69.0466 298.497 67.3604 299.526 69.5193C299.815 70.1257 301.193 72.4333 297.983 74.5201" stroke="black" stroke-linecap="round"/>
    <path d="M302.704 68.4042C303.873 67.4739 304.874 66.4746 305.933 65.4313" stroke="black" stroke-linecap="round"/>
    <path d="M307.023 58.9766C308.186 61.8365 311.02 64.372 311.54 67.377" stroke="black" stroke-linecap="round"/>
    <path d="M307.28 60.4623C309.201 58.9965 313.077 55.6401 313.829 59.9793C314.184 62.0317 312.654 63.1022 310.853 63.4144" stroke="black" stroke-linecap="round"/>
    <path d="M291.951 121.833C290.717 125.299 289.933 128.931 289.044 132.495" stroke="black" stroke-linecap="round"/>
    <path d="M290.622 122.936C293.987 123.783 295.307 124.154 295.879 127.023C296.25 128.886 290.695 129.458 289.211 129.187" stroke="black" stroke-linecap="round"/>
    <path d="M299.656 127.578C300.902 127.662 302.133 127.779 303.378 127.938" stroke="black" stroke-linecap="round"/>
    <path d="M309.268 122.709C308.74 126.476 308.014 130.22 307.401 133.97" stroke="black" stroke-linecap="round"/>
    <path d="M308.94 123.692C311.017 124.265 314.152 124.708 313.591 127.08C313.433 127.746 313.094 130.504 308.607 129.438" stroke="black" stroke-linecap="round"/>
    <path d="M416.672 18.9462C414.955 20.5573 413.525 21.2809 411.621 19.2513C409.717 17.2217 411.748 14.2252 413.981 14.3109C416.214 14.3966 418.39 17.3351 416.672 18.9462Z" stroke="black" stroke-linecap="round"/>
    <path d="M459.949 107.229C456.298 110.655 453.257 112.194 449.207 107.878C445.158 103.562 449.478 97.1895 454.226 97.3717" stroke="black" stroke-linecap="round"/>
    <path d="M492 32.6911C492 37.4003 491.099 40.4761 485.532 40.4761C479.966 40.4761 478.376 33.4124 481.557 30.273C484.737 27.1335 492 27.982 492 32.6911Z" fill="white" stroke="black" stroke-linecap="round"/>
</svg>
